<?xml version="1.0" encoding="UTF-8" standalone="no"?>
<svg
   xmlns:dc="http://purl.org/dc/elements/1.1/"
   xmlns:cc="http://creativecommons.org/ns#"
   xmlns:rdf="http://www.w3.org/1999/02/22-rdf-syntax-ns#"
   xmlns:svg="http://www.w3.org/2000/svg"
   xmlns="http://www.w3.org/2000/svg"
   xmlns:sodipodi="http://sodipodi.sourceforge.net/DTD/sodipodi-0.dtd"
   xmlns:inkscape="http://www.inkscape.org/namespaces/inkscape"
   width="800pt"
   height="467pt"
   viewBox="0 0 800 467"
   version="1.1"
   id="svg2"
   inkscape:version="0.91 r13725"
   sodipodi:docname="Česká_národní_banka_logo.svg">
  <metadata
     id="metadata67">
    <rdf:RDF>
      <cc:Work
         rdf:about="">
        <dc:format>image/svg+xml</dc:format>
        <dc:type
           rdf:resource="http://purl.org/dc/dcmitype/StillImage" />
      </cc:Work>
    </rdf:RDF>
  </metadata>
  <defs
     id="defs65" />
  <sodipodi:namedview
     pagecolor="#ffffff"
     bordercolor="#666666"
     borderopacity="1"
     objecttolerance="10"
     gridtolerance="10"
     guidetolerance="10"
     inkscape:pageopacity="0"
     inkscape:pageshadow="2"
     inkscape:window-width="1280"
     inkscape:window-height="657"
     id="namedview63"
     showgrid="false"
     inkscape:zoom="0.576"
     inkscape:cx="712.61548"
     inkscape:cy="307.52604"
     inkscape:window-x="-8"
     inkscape:window-y="-8"
     inkscape:window-maximized="1"
     inkscape:current-layer="svg2" />
  <g
     id="#fdfdfdff" />
  <g
     id="#5a5a5aff">
    <path
       fill="#5a5a5a"
       opacity="1.00"
       d=" M 152.75 39.42 C 162.99 32.43 173.37 25.61 183.53 18.49 C 186.83 24.11 190.93 29.22 194.34 34.78 C 181.70 43.02 169.19 51.48 156.65 59.86 C 162.68 60.03 168.72 60.09 174.76 59.84 C 174.75 70.43 174.99 81.03 174.62 91.62 C 171.66 91.73 170.89 87.93 168.11 87.42 C 166.59 87.15 164.26 85.85 163.27 87.62 C 163.38 87.29 163.58 86.63 163.68 86.30 C 147.75 85.80 130.99 88.57 117.62 97.75 C 105.37 105.88 95.86 118.10 91.18 132.05 C 86.03 147.22 86.26 164.35 92.72 179.11 C 99.76 196.10 113.44 210.82 130.93 217.12 C 148.55 223.01 167.35 220.41 185.54 221.57 C 185.97 197.39 185.23 173.21 185.39 149.02 C 185.37 123.34 185.44 97.66 185.36 71.98 C 185.53 68.12 184.37 63.66 180.26 62.36 C 180.22 61.77 180.15 60.61 180.12 60.02 C 195.77 59.90 211.42 60.40 227.08 60.01 C 231.63 67.52 236.40 74.90 240.81 82.51 C 242.71 81.88 242.98 82.38 241.69 83.53 C 260.77 114.94 280.26 146.11 299.47 177.45 C 301.58 180.98 304.22 184.22 305.69 188.10 C 306.40 189.59 306.71 191.49 308.26 192.41 C 308.37 152.28 308.25 112.16 308.32 72.04 C 308.37 69.27 308.27 65.96 305.81 64.16 C 304.60 63.05 301.61 62.44 303.23 60.38 C 315.00 60.35 326.80 60.15 338.57 60.49 C 338.44 62.33 338.33 64.18 338.32 66.03 C 338.34 122.36 338.32 178.68 338.33 235.01 C 338.34 239.53 338.22 244.05 338.48 248.57 C 328.41 248.83 318.34 248.58 308.27 248.70 C 281.27 204.67 254.33 160.61 227.40 116.55 C 223.21 109.69 218.74 103.01 215.02 95.90 C 214.84 143.59 215.13 191.29 215.10 238.99 C 215.13 240.99 215.09 243.75 217.39 244.57 C 218.92 245.14 220.24 246.06 220.22 247.89 C 209.15 248.19 198.08 247.88 187.01 248.05 C 176.35 248.45 165.69 248.16 155.03 247.98 C 140.16 246.97 125.00 245.17 111.35 238.77 C 74.86 222.56 53.00 180.25 58.84 141.07 C 61.49 121.38 69.79 102.15 83.71 87.81 C 95.65 75.22 111.31 66.08 128.34 62.55 C 134.57 61.04 140.97 60.40 147.33 59.78 C 135.03 50.94 122.77 42.07 110.43 33.30 C 114.59 28.26 118.91 23.37 123.06 18.33 C 131.84 24.73 140.70 31.01 149.46 37.44 C 150.52 38.14 151.49 39.08 152.75 39.42 Z"
       id="path6" />
    <path
       fill="#5a5a5a"
       opacity="1.00"
       d=" M 343.81 60.02 C 364.56 60.30 385.33 59.99 406.08 60.18 C 422.50 60.54 439.24 67.17 449.83 80.03 C 462.55 95.02 463.48 118.69 451.65 134.45 C 446.57 141.35 438.91 145.82 430.92 148.55 C 449.56 152.32 463.10 169.82 466.08 188.02 C 467.47 204.04 461.86 220.99 450.18 232.24 C 440.00 242.18 425.85 246.82 411.95 248.19 C 404.96 248.95 397.93 248.88 390.92 248.68 C 375.28 248.74 359.65 248.53 344.02 248.80 C 343.86 185.87 344.25 122.94 343.81 60.02 M 373.45 87.15 C 373.69 98.10 373.71 109.07 373.38 120.02 C 373.38 153.92 373.45 187.81 373.34 221.70 C 379.55 221.73 385.76 221.70 391.97 221.70 C 402.80 221.86 414.52 222.33 423.99 216.17 C 437.25 207.87 440.57 187.42 430.44 175.47 C 423.69 167.50 413.21 163.54 402.98 162.88 C 403.00 153.87 403.03 144.86 402.97 135.85 C 412.51 134.42 422.63 130.51 427.81 121.85 C 432.87 113.32 431.64 101.43 424.46 94.47 C 418.97 89.33 411.27 87.41 403.96 87.01 C 393.79 87.06 383.62 86.85 373.45 87.15 Z"
       id="path8" />
    <path
       fill="#5a5a5a"
       opacity="1.00"
       d=" M 602.01 242.67 C 599.93 240.84 604.19 239.34 603.20 242.18 C 602.90 242.30 602.31 242.55 602.01 242.67 Z"
       id="path10" />
    <path
       fill="#5a5a5a"
       opacity="1.00"
       d=" M 396.29 371.25 C 394.76 370.44 394.81 369.93 396.44 369.74 C 396.40 370.12 396.32 370.87 396.29 371.25 Z"
       id="path12" />
    <path
       fill="#5a5a5a"
       opacity="1.00"
       d=" M 405.40 370.02 C 405.80 369.99 406.59 369.93 406.99 369.91 L 407.13 370.77 L 406.46 371.18 C 406.19 370.89 405.66 370.31 405.40 370.02 Z"
       id="path14" />
    <path
       fill="#5a5a5a"
       opacity="1.00"
       d=" M 365.70 442.84 C 364.11 444.21 363.00 440.71 365.11 440.95 C 365.26 441.42 365.55 442.37 365.70 442.84 Z"
       id="path16" />
    <path
       fill="#5a5a5a"
       opacity="1.00"
       d=" M 373.89 440.97 C 376.53 439.37 376.10 444.78 373.82 442.71 C 373.84 442.28 373.87 441.40 373.89 440.97 Z"
       id="path18" />
  </g>
  <g
     id="#132ef5ff">
    <path
       d=" M 519.56 165.15 C 520.79 163.66 522.04 162.18 523.38 160.79 C 526.45 163.02 529.30 165.85 532.82 167.29 C 536.01 165.07 539.08 162.67 542.18 160.33 C 543.29 161.87 544.38 163.43 545.44 165.01 C 541.24 168.15 536.86 171.07 532.77 174.35 C 528.14 171.63 523.74 168.51 519.56 165.15 Z"
       id="path21"
       fill="#132ef5"
       opacity="1.00"
       style="fill:#3d52a1;fill-opacity:1" />
    <path
       d=" M 713.78 170.09 C 720.19 167.38 726.55 164.56 732.91 161.72 C 733.85 163.80 734.80 165.87 735.74 167.96 C 729.19 170.51 722.52 172.74 715.97 175.28 C 715.24 173.54 714.51 171.81 713.78 170.09 Z"
       id="path23"
       fill="#132ef5"
       opacity="1.00"
       style="fill:#3d52a1;fill-opacity:1" />
    <path
       d=" M 499.65 195.65 C 505.36 184.87 516.91 177.73 528.92 176.35 C 534.13 175.87 539.39 176.16 544.60 176.59 C 544.51 180.09 545.50 183.71 544.36 187.11 C 543.84 186.50 542.80 185.29 542.28 184.68 C 526.62 179.46 507.79 190.56 504.29 206.57 C 502.73 214.34 504.13 222.80 508.52 229.44 C 513.55 237.51 522.74 242.43 532.05 243.48 C 536.53 243.68 541.66 244.06 545.25 240.84 C 545.18 243.95 545.10 247.07 545.16 250.18 C 533.88 252.37 521.58 250.61 511.92 244.22 C 496.51 234.14 491.45 211.85 499.65 195.65 Z"
       id="path25"
       fill="#132ef5"
       opacity="1.00"
       style="fill:#3d52a1;fill-opacity:1" />
    <path
       d=" M 612.79 177.67 C 618.70 176.17 624.98 176.84 630.83 178.34 C 630.86 181.53 630.84 184.72 630.91 187.91 C 627.45 184.00 621.89 183.58 617.05 184.37 C 612.44 185.35 609.07 190.34 610.36 194.99 C 611.50 199.17 614.63 202.38 617.48 205.50 C 623.02 211.27 629.26 216.61 633.17 223.71 C 637.85 232.52 634.41 244.80 625.53 249.52 C 618.21 253.22 609.45 252.30 601.78 250.20 C 601.82 247.69 601.77 245.17 602.01 242.67 C 602.31 242.55 602.90 242.30 603.20 242.18 C 608.24 244.43 614.09 245.56 619.39 243.45 C 626.11 241.49 628.83 232.49 625.28 226.73 C 621.64 220.84 616.10 216.48 611.52 211.36 C 607.08 206.45 602.05 201.05 601.81 194.05 C 601.12 186.93 605.75 179.50 612.79 177.67 Z"
       id="path27"
       fill="#132ef5"
       opacity="1.00"
       style="fill:#3d52a1;fill-opacity:1" />
    <path
       d=" M 676.06 177.96 C 680.11 177.90 684.18 178.02 688.24 177.79 C 681.31 189.00 673.62 199.80 666.43 210.88 C 673.04 221.20 679.35 231.70 685.91 242.05 C 687.54 244.48 688.67 247.31 690.96 249.23 C 698.12 227.59 704.83 205.80 711.77 184.09 C 712.61 181.98 712.32 179.74 711.78 177.60 C 717.70 177.65 723.62 177.68 729.54 177.61 C 728.59 179.57 728.54 181.77 729.29 183.80 C 735.94 204.82 742.57 225.86 749.19 246.90 C 749.75 248.46 750.93 249.67 751.91 250.99 C 747.99 251.07 744.07 251.16 740.16 250.88 C 740.57 250.26 740.99 249.64 741.42 249.03 C 739.60 242.44 737.14 236.05 735.52 229.41 C 725.57 229.09 715.61 229.39 705.67 229.21 C 703.51 235.78 701.31 242.35 699.47 249.02 C 699.78 249.49 700.41 250.43 700.73 250.89 C 693.45 251.30 686.15 250.80 678.87 251.06 C 679.25 249.96 680.47 248.75 679.40 247.61 C 673.51 237.83 667.34 228.22 661.36 218.50 C 659.83 216.23 658.82 213.40 656.29 212.03 C 663.30 201.67 669.97 191.08 677.12 180.82 C 676.76 179.87 676.41 178.91 676.06 177.96 M 707.91 221.93 C 716.31 221.83 724.72 221.90 733.12 221.90 C 728.85 208.87 724.76 195.78 720.53 182.74 C 715.83 195.62 712.08 208.85 707.91 221.93 Z"
       id="path29"
       fill="#132ef5"
       opacity="1.00"
       style="fill:#3d52a1;fill-opacity:1" />
    <path
       d=" M 556.06 177.96 C 567.02 177.89 577.98 178.00 588.95 177.91 C 589.07 181.20 589.07 184.50 588.96 187.80 C 587.41 186.81 585.91 185.40 583.94 185.54 C 578.26 185.51 572.57 185.55 566.89 185.58 C 567.00 193.02 566.90 200.47 566.92 207.92 C 573.22 207.82 579.53 208.11 585.83 207.80 C 587.36 207.82 587.95 206.25 588.84 205.27 C 589.09 209.41 589.24 213.58 588.72 217.71 C 587.59 216.74 586.55 215.35 584.91 215.37 C 578.91 215.16 572.90 215.30 566.89 215.30 C 566.97 224.83 566.86 234.36 566.84 243.89 C 573.40 243.67 579.98 244.01 586.55 243.64 C 587.33 242.73 588.12 241.82 588.93 240.93 C 589.08 244.21 589.11 247.51 588.94 250.80 C 578.31 250.63 567.67 250.71 557.04 250.75 C 555.14 249.63 559.09 248.56 558.73 246.97 C 559.01 224.94 558.73 202.91 558.88 180.88 C 557.95 179.89 556.99 178.92 556.06 177.96 Z"
       id="path31"
       fill="#132ef5"
       opacity="1.00"
       style="fill:#3d52a1;fill-opacity:1" />
    <path
       d=" M 644.59 177.62 C 648.68 177.86 652.84 177.24 656.89 177.89 C 655.98 179.12 654.60 180.25 654.79 181.97 C 654.82 203.32 654.74 224.67 654.82 246.01 C 654.58 248.13 656.22 249.48 657.66 250.70 C 653.20 251.16 648.71 251.16 644.26 250.76 C 645.59 249.42 647.45 248.18 647.06 246.00 C 647.11 224.99 647.10 203.97 647.06 182.96 C 647.28 180.80 646.07 179.03 644.59 177.62 Z"
       id="path33"
       fill="#132ef5"
       opacity="1.00"
       style="fill:#3d52a1;fill-opacity:1" />
    <path
       d=" M 269.21 266.50 C 275.76 263.94 282.07 260.79 288.59 258.15 C 289.47 260.24 290.41 262.31 291.42 264.35 C 284.90 266.88 278.22 269.00 271.79 271.75 C 270.89 270.01 270.03 268.26 269.21 266.50 Z"
       id="path35"
       fill="#132ef5"
       opacity="1.00"
       style="fill:#3d52a1;fill-opacity:1" />
    <path
       d=" M 589.00 266.21 C 595.35 263.48 601.66 260.65 607.95 257.78 C 608.92 259.83 609.86 261.90 610.80 263.96 C 604.25 266.36 597.75 268.92 591.20 271.34 C 590.45 269.63 589.70 267.93 589.00 266.21 Z"
       id="path37"
       fill="#132ef5"
       opacity="1.00"
       style="fill:#3d52a1;fill-opacity:1" />
    <path
       d=" M 396.49 272.70 C 406.04 271.28 416.12 273.66 424.04 279.18 C 432.48 284.81 438.28 294.05 440.17 303.97 C 442.26 315.12 439.18 327.17 431.81 335.83 C 425.50 343.59 416.02 348.60 406.09 349.64 C 395.31 350.84 384.16 347.17 376.07 339.97 C 367.57 332.54 362.88 321.20 363.05 309.97 C 363.52 302.78 365.46 295.57 369.62 289.62 C 375.54 280.42 385.69 274.18 396.49 272.70 M 399.04 280.19 C 386.97 281.25 376.14 290.15 372.62 301.72 C 368.63 313.36 372.92 327.06 382.38 334.78 C 390.80 342.10 403.41 344.02 413.68 339.77 C 425.86 335.04 434.21 322.08 433.09 309.00 C 432.50 292.09 415.84 277.93 399.04 280.19 Z"
       id="path39"
       fill="#132ef5"
       opacity="1.00"
       style="fill:#3d52a1;fill-opacity:1" />
    <path
       d=" M 267.14 273.80 C 273.12 273.86 279.09 273.90 285.07 273.81 C 284.39 275.80 283.91 277.91 284.81 279.93 C 290.48 297.96 296.18 315.97 301.89 333.98 C 303.43 338.62 304.32 343.59 307.28 347.61 C 303.44 347.48 299.59 347.38 295.76 347.65 C 296.07 347.11 296.69 346.02 297.00 345.47 C 295.21 338.83 292.73 332.39 291.01 325.73 C 281.01 325.68 271.00 325.76 261.00 325.69 C 259.37 332.37 256.71 338.76 255.09 345.44 C 255.35 345.99 255.88 347.10 256.15 347.65 C 252.38 347.43 248.60 347.49 244.84 347.61 C 245.85 345.96 247.01 344.37 247.65 342.52 C 254.28 321.80 260.84 301.05 267.47 280.32 C 268.28 278.17 267.99 275.88 267.14 273.80 M 275.88 278.98 C 271.70 292.04 267.67 305.14 263.47 318.19 C 271.85 318.06 280.24 318.11 288.63 318.19 C 284.41 305.11 280.47 291.92 275.88 278.98 Z"
       id="path41"
       fill="#132ef5"
       opacity="1.00"
       style="fill:#3d52a1;fill-opacity:1" />
    <path
       d=" M 313.23 274.48 C 322.83 275.13 333.24 273.02 342.02 278.04 C 350.46 282.78 353.34 294.16 349.88 302.87 C 347.65 308.34 342.49 312.10 336.92 313.71 C 342.89 318.51 345.88 325.72 350.00 331.97 C 353.30 337.05 356.04 342.50 359.78 347.29 C 355.99 347.34 352.20 347.33 348.42 347.36 C 348.25 345.82 348.11 344.23 347.18 342.93 C 342.45 334.98 337.80 326.98 332.72 319.26 C 330.72 316.07 326.88 315.32 323.38 315.47 C 323.44 325.36 323.29 335.26 323.45 345.16 C 323.85 345.65 324.65 346.63 325.05 347.13 C 321.34 347.18 317.61 347.00 313.91 347.31 C 316.20 342.88 315.38 337.80 315.52 333.02 C 315.64 315.33 315.05 297.66 315.31 279.98 C 315.66 277.82 314.55 276.04 313.23 274.48 M 323.46 282.05 C 323.31 290.91 323.38 299.77 323.42 308.64 C 329.63 309.16 336.83 308.21 340.97 303.03 C 344.29 297.87 344.02 290.02 339.20 285.84 C 335.04 281.84 328.82 282.03 323.46 282.05 Z"
       id="path43"
       fill="#132ef5"
       opacity="1.00"
       style="fill:#3d52a1;fill-opacity:1" />
    <path
       d=" M 452.07 274.21 C 460.69 274.53 469.38 273.72 477.96 274.79 C 491.39 277.01 502.27 288.36 505.31 301.43 C 509.44 317.74 501.68 336.82 486.11 344.00 C 475.50 349.36 463.36 346.90 451.97 347.54 C 453.50 345.67 454.79 343.51 454.63 341.00 C 454.67 320.67 454.70 300.33 454.62 280.00 C 454.81 277.72 453.19 276.00 452.07 274.21 M 462.79 281.40 C 462.77 300.92 462.95 320.44 462.70 339.96 C 472.09 340.48 482.27 339.03 489.35 332.28 C 503.12 320.18 500.65 295.49 485.28 285.83 C 478.66 281.44 470.44 281.39 462.79 281.40 Z"
       id="path45"
       fill="#132ef5"
       opacity="1.00"
       style="fill:#3d52a1;fill-opacity:1" />
    <path
       d=" M 591.61 274.35 C 595.17 274.45 598.74 274.43 602.31 274.28 C 601.85 275.20 601.39 276.12 600.94 277.05 C 600.94 299.05 600.73 321.06 600.83 343.06 C 600.75 344.67 601.60 346.07 602.22 347.50 C 598.52 347.22 594.80 347.24 591.10 347.47 C 591.88 346.07 593.00 344.71 592.89 343.01 C 593.00 321.68 592.83 300.34 592.93 279.01 C 593.09 277.32 592.35 275.79 591.61 274.35 Z"
       id="path47"
       fill="#132ef5"
       opacity="1.00"
       style="fill:#3d52a1;fill-opacity:1" />
    <path
       d=" M 181.19 274.95 C 186.16 274.47 191.17 275.04 196.16 274.68 C 196.46 276.75 197.29 278.67 198.44 280.42 C 205.28 291.55 211.88 302.83 218.74 313.96 C 222.50 320.31 226.48 326.53 229.75 333.16 C 229.60 315.46 229.76 297.76 229.68 280.06 C 229.78 278.14 228.51 276.59 227.62 275.01 C 231.45 275.10 235.28 275.13 239.10 275.01 C 236.74 278.56 237.62 282.94 237.48 286.96 C 237.61 307.08 237.33 327.19 237.32 347.31 C 234.56 347.30 231.80 347.29 229.04 347.27 C 227.57 343.25 224.82 339.90 222.86 336.13 C 211.99 318.05 201.25 299.89 190.37 281.81 C 190.77 302.17 190.39 322.56 190.57 342.92 C 190.59 344.62 191.84 345.92 192.60 347.34 C 188.66 347.32 184.72 347.29 180.78 347.35 C 181.94 345.79 183.17 344.11 182.89 342.04 C 182.88 321.01 182.90 299.99 182.89 278.96 C 183.11 277.36 181.92 276.21 181.19 274.95 Z"
       id="path49"
       fill="#132ef5"
       opacity="1.00"
       style="fill:#3d52a1;fill-opacity:1" />
    <path
       d=" M 518.83 276.95 C 517.94 276.42 517.34 275.63 517.17 274.60 C 522.22 274.88 527.28 274.85 532.34 274.65 C 533.03 278.95 535.88 282.36 537.97 286.04 C 547.32 301.59 556.89 317.01 565.92 332.75 C 565.82 317.84 565.94 302.93 565.90 288.03 C 565.81 283.67 566.68 278.93 563.98 275.13 C 567.71 275.05 571.45 275.11 575.19 275.07 C 574.55 276.48 573.65 277.86 573.63 279.47 C 573.56 302.08 573.30 324.70 573.46 347.31 C 570.65 347.30 567.85 347.30 565.06 347.28 C 563.94 343.64 561.57 340.62 559.69 337.37 C 551.02 322.74 542.26 308.17 533.58 293.55 C 531.09 289.49 528.55 285.44 526.48 281.14 C 527.23 301.73 526.50 322.37 526.82 342.97 C 526.76 344.68 527.89 346.04 528.75 347.42 C 524.86 347.27 520.97 347.28 517.08 347.40 C 518.47 345.50 519.25 343.29 519.01 340.92 C 518.89 319.60 519.19 298.27 518.83 276.95 Z"
       id="path51"
       fill="#132ef5"
       opacity="1.00"
       style="fill:#3d52a1;fill-opacity:1" />
    <path
       d=" M 245.28 369.20 C 251.32 369.42 257.37 369.38 263.41 369.54 C 261.40 372.52 263.15 375.92 264.01 378.97 C 269.79 396.92 275.36 414.95 281.09 432.92 C 282.29 436.37 282.73 440.36 285.77 442.80 C 281.90 442.84 278.04 442.84 274.17 442.88 C 274.45 441.58 275.13 440.25 274.58 438.94 C 272.84 432.98 270.64 427.16 269.11 421.15 C 259.14 421.08 249.16 421.12 239.19 421.11 C 237.43 427.34 235.23 433.43 233.42 439.64 C 232.96 440.80 233.90 441.85 234.18 442.93 C 230.44 442.79 226.70 442.79 222.96 442.92 C 224.10 441.32 225.25 439.69 225.80 437.79 C 232.41 417.06 238.97 396.33 245.60 375.61 C 246.50 373.49 245.94 371.27 245.28 369.20 M 241.54 413.71 C 249.95 413.76 258.37 413.67 266.78 413.77 C 262.73 400.53 258.12 387.46 254.27 374.15 C 249.65 387.20 245.86 400.55 241.54 413.71 Z"
       id="path53"
       fill="#132ef5"
       opacity="1.00"
       style="fill:#3d52a1;fill-opacity:1" />
    <path
       d=" M 363.70 369.26 C 367.83 369.60 371.97 369.41 376.11 369.44 C 375.42 370.33 374.66 371.17 373.90 372.00 C 373.69 394.98 373.73 417.99 373.89 440.97 C 373.87 441.40 373.84 442.28 373.82 442.71 C 371.11 442.69 368.40 442.69 365.70 442.84 C 365.55 442.37 365.26 441.42 365.11 440.95 C 365.71 439.72 366.00 438.38 365.92 437.02 C 365.88 416.00 365.95 394.99 365.89 373.97 C 366.02 372.10 364.56 370.76 363.70 369.26 Z"
       id="path55"
       fill="#132ef5"
       opacity="1.00"
       style="fill:#3d52a1;fill-opacity:1" />
    <path
       d=" M 429.58 369.04 C 435.58 369.54 441.60 369.45 447.61 369.47 C 446.71 371.17 446.14 373.10 446.98 374.97 C 453.19 394.75 459.44 414.52 465.71 434.28 C 466.58 437.24 467.16 440.56 469.95 442.38 C 466.10 443.23 462.13 442.73 458.22 442.84 C 458.54 441.94 458.86 441.05 459.18 440.17 C 457.10 433.84 455.14 427.47 453.17 421.10 C 443.22 421.19 433.27 421.01 423.32 421.22 C 421.69 426.89 419.81 432.48 418.04 438.10 C 417.36 439.70 417.73 441.38 418.32 442.95 C 411.53 442.83 404.74 442.62 397.95 442.79 C 398.29 441.95 398.63 441.12 398.98 440.30 C 391.60 428.38 384.14 416.52 376.85 404.55 C 376.44 404.43 375.63 404.20 375.22 404.08 C 380.31 395.92 385.81 388.02 391.06 379.96 C 392.85 377.09 395.13 374.48 396.29 371.25 C 396.32 370.87 396.40 370.12 396.44 369.74 C 399.42 369.84 402.43 369.58 405.40 370.02 C 405.66 370.31 406.19 370.89 406.46 371.18 C 399.24 381.60 392.37 392.26 385.37 402.82 C 392.03 412.86 398.10 423.27 404.57 433.42 C 406.12 435.69 407.16 438.37 409.22 440.26 C 415.87 418.92 422.79 397.67 429.52 376.35 C 430.35 373.97 430.19 371.44 429.58 369.04 M 438.01 374.08 C 434.36 387.43 429.73 400.49 425.77 413.75 C 434.16 413.75 442.55 413.63 450.94 413.80 C 446.70 400.54 442.74 387.16 438.01 374.08 Z"
       id="path57"
       fill="#132ef5"
       opacity="1.00"
       style="fill:#3d52a1;fill-opacity:1" />
    <path
       d=" M 179.92 370.54 C 186.28 370.48 192.64 370.43 199.00 370.56 C 206.35 370.70 214.26 374.36 217.34 381.38 C 219.66 386.18 218.95 391.83 216.94 396.60 C 217.68 397.29 217.83 398.17 217.37 399.24 C 216.97 398.61 216.57 397.99 216.17 397.37 C 214.34 400.54 211.30 402.79 207.81 403.81 C 211.16 405.72 214.85 407.34 217.29 410.47 C 222.77 417.46 222.57 428.29 216.98 435.16 C 212.74 440.53 205.66 442.91 198.99 442.82 C 192.69 442.81 186.39 442.89 180.09 442.79 C 181.85 440.96 183.00 438.66 182.84 436.07 C 182.96 415.69 182.85 395.30 182.90 374.92 C 183.36 372.76 181.20 371.80 179.92 370.54 M 190.15 377.63 C 190.41 385.21 189.93 392.81 190.55 400.38 C 195.41 400.05 200.70 400.82 205.05 398.09 C 211.19 394.95 212.92 385.20 207.33 380.72 C 202.59 376.51 195.97 377.52 190.15 377.63 M 190.52 407.41 C 190.55 416.84 190.56 426.27 190.50 435.71 C 197.27 435.47 205.77 436.48 210.54 430.58 C 214.68 424.22 213.25 414.41 206.62 410.22 C 201.95 406.86 195.96 407.30 190.52 407.41 Z"
       id="path59"
       fill="#132ef5"
       opacity="1.00"
       style="fill:#3d52a1;fill-opacity:1" />
    <path
       d=" M 290.73 370.22 C 295.97 370.12 301.21 370.21 306.45 370.15 C 306.58 371.38 306.87 372.56 307.33 373.71 C 318.00 391.95 329.47 409.74 339.80 428.19 C 339.87 410.79 339.82 393.39 339.81 375.99 C 340.00 373.87 338.64 372.19 337.48 370.59 C 341.34 370.38 345.21 370.59 349.07 370.36 C 348.51 371.84 347.63 373.27 347.65 374.91 C 347.45 397.44 347.21 420.00 347.62 442.53 C 344.82 442.77 342.02 442.77 339.22 442.74 C 333.41 431.51 326.37 420.95 320.07 410.00 C 313.48 398.97 306.82 387.98 300.42 376.84 C 300.76 379.89 300.78 382.96 300.74 386.03 C 300.72 402.01 300.76 418.00 300.72 433.99 C 300.86 436.88 299.95 440.44 302.88 442.29 C 298.96 443.31 294.80 442.46 290.79 442.75 C 291.43 441.73 292.14 440.76 292.87 439.81 C 292.97 417.32 293.10 394.82 292.80 372.34 C 292.10 371.63 291.41 370.93 290.73 370.22 Z"
       id="path61"
       fill="#132ef5"
       opacity="1.00"
       style="fill:#3d52a1;fill-opacity:1" />
  </g>
</svg>
