<?xml version="1.0" encoding="utf-8"?>
<!-- Generator: Adobe Illustrator 16.0.0, SVG Export Plug-In . SVG Version: 6.00 Build 0)  -->
<!DOCTYPE svg PUBLIC "-//W3C//DTD SVG 1.1//EN" "http://www.w3.org/Graphics/SVG/1.1/DTD/svg11.dtd">
<svg version="1.1" id="Layer_1" xmlns="http://www.w3.org/2000/svg" xmlns:xlink="http://www.w3.org/1999/xlink" x="0px" y="0px"
	 width="65px" height="37px" viewBox="0 0 65 37" enable-background="new 0 0 65 37" xml:space="preserve">
<g>
	<defs>
		<rect id="SVGID_1_" x="0.60742" width="64.22852" height="37.25"/>
	</defs>
	<clipPath id="SVGID_2_">
		<use xlink:href="#SVGID_1_"  overflow="visible"/>
	</clipPath>
	<g clip-path="url(#SVGID_2_)">
		<g>
			<defs>
				<rect id="SVGID_3_" x="-6.521" y="-7.40576" width="77.94678" height="50.38916"/>
			</defs>
			<clipPath id="SVGID_4_">
				<use xlink:href="#SVGID_3_"  overflow="visible"/>
			</clipPath>
			<polygon clip-path="url(#SVGID_4_)" fill="#008647" points="5.19482,20.98828 8.31836,24.74219 6.11084,24.74219 
				3.30664,21.42285 3.30664,24.74219 1.54395,24.74219 1.54395,17.66846 3.30664,17.66846 3.30664,20.87305 3.32666,20.87305 
				5.55713,17.66846 7.50098,17.66846 			"/>
			<g clip-path="url(#SVGID_4_)">
				<defs>
					<rect id="SVGID_5_" x="-6.521" y="-7.40576" width="77.94678" height="50.38916"/>
				</defs>
				<clipPath id="SVGID_6_">
					<use xlink:href="#SVGID_5_"  overflow="visible"/>
				</clipPath>
				<path clip-path="url(#SVGID_6_)" fill="#008647" d="M13.875,22.07227c0-2.05762-1.69385-2.79297-3.00146-2.79297
					c-1.58008,0-3.02783,0.95605-3.02783,2.7793c0,1.6875,1.27588,2.79395,3.02783,2.79395
					C12.05176,24.85254,13.875,24.19922,13.875,22.07227 M12.07666,22.02734c0,1.17188-0.4165,1.82422-1.20313,1.82422
					c-0.64063,0-1.22852-0.4082-1.22852-1.79297c0-1.20898,0.49854-1.77832,1.22852-1.77832
					C11.71631,20.28027,12.07666,20.97949,12.07666,22.02734"/>
				<path clip-path="url(#SVGID_6_)" fill="#008647" d="M20.56641,22.07227c0-2.05762-1.69531-2.79297-3.00439-2.79297
					c-1.5752,0-3.0293,0.95605-3.0293,2.7793c0,1.6875,1.27881,2.79395,3.0293,2.79395
					C18.74609,24.85254,20.56641,24.19922,20.56641,22.07227 M18.76904,22.02734c0,1.17188-0.41895,1.82422-1.20703,1.82422
					c-0.63672,0-1.229-0.4082-1.229-1.79297c0-1.20898,0.50049-1.77832,1.229-1.77832
					C18.40771,20.28027,18.76904,20.97949,18.76904,22.02734"/>
				<path clip-path="url(#SVGID_6_)" fill="#008647" d="M23.10791,19.39063h-1.68066v7.61133h1.68066V24.4873
					c0.39648,0.23047,0.90332,0.36719,1.37598,0.36719c1.5874,0,2.63135-1.11719,2.63135-2.8457
					c0-1.5498-1.09277-2.73145-2.47949-2.73145c-0.57764,0-1.05371,0.17578-1.52783,0.57031V19.39063 M23.10791,20.90918
					c0.41846-0.33203,0.68115-0.4375,1.04248-0.4375c0.79834,0,1.25928,0.60059,1.25928,1.62988
					c0,1.00391-0.51172,1.63574-1.32959,1.63574c-0.33203,0-0.63379-0.10742-0.97217-0.35156V20.90918z"/>
				<path clip-path="url(#SVGID_6_)" fill="#008647" d="M33.26172,23.08203c-0.78955,0.57031-1.30908,0.76953-1.98633,0.76953
					c-1.06592,0-1.71777-0.56055-1.7793-1.52051h3.85449c0.08496-1.94434-1.20166-3.05176-2.76611-3.05176
					c-1.65479,0-2.82959,1.16504-2.82959,2.80176c0,1.67773,1.21826,2.77148,3.11377,2.77148c0.41748,0,1.43066,0,2.39307-0.70703
					V23.08203 M29.5293,21.45996c0.0752-0.74805,0.50537-1.17969,1.17285-1.17969c0.65576,0,1.09766,0.44629,1.16846,1.17969
					H29.5293z"/>
				<path clip-path="url(#SVGID_6_)" fill="#008647" d="M36.10645,20.55273l0.02441,0.25
					c0.49902-1.11035,1.0918-1.3916,1.5625-1.43457c0.18066-0.01758,0.57031-0.06152,0.93359,0.30664v1.61426
					c-0.43945-0.27734-0.90625-0.25879-1.1748-0.25879c-0.57227,0-1.35059,0.74805-1.3457,1.40137v2.31055H34.4248v-5.35156h1.68164
					V20.55273"/>
				<path clip-path="url(#SVGID_6_)" fill="#008647" d="M44.70605,23.4209c-0.39063,0.2793-0.51758,0.30176-0.63672,0.30176
					c-0.1709,0-0.27734-0.10547-0.27734-0.37207v-2.45117c0-1.17188-0.91699-1.62207-2.26758-1.62207
					c-0.85352,0-1.62891,0.21875-2.32422,0.64648v1.37207c0.53027-0.55176,1.29785-0.89941,1.97461-0.89941
					c0.73535,0,0.96777,0.39746,0.93164,0.89941c-2.24707,0.7002-3.18945,0.95898-3.18945,2.24219
					c0,0.6748,0.6416,1.31641,1.49805,1.31641c0.58203,0,1.12012-0.16211,1.77539-0.60645
					c0.11426,0.43066,0.37988,0.60645,0.93945,0.60645c0.4541,0,1.11523-0.21094,1.57617-0.4873V23.4209 M42.10645,23.44336
					c-0.2793,0.25684-0.62012,0.4082-0.93164,0.4082c-0.30957,0-0.54883-0.25879-0.54883-0.57227
					c0-0.53906,0.47949-0.76855,1.48047-1.13184V23.44336z"/>
				<path clip-path="url(#SVGID_6_)" fill="#008647" d="M49.0166,20.54785h-1.95117v2.21387
					c0,0.52246,0.29785,0.8584,0.82324,0.8584c0.34863,0,0.67383-0.08008,1.12793-0.31348v1.21191
					c-0.59473,0.24219-1.03613,0.33594-1.55859,0.33594c-1.11523,0-2.07813-0.50977-2.07813-2.00781v-2.29883h-0.7666v-0.3252
					l2.24219-2.5127h0.20996v1.68262h1.95117V20.54785"/>
				<path clip-path="url(#SVGID_6_)" fill="#008647" d="M51.51855,17.64551c0,0.50928-0.41699,0.93018-0.9248,0.93018
					c-0.5166,0-0.92969-0.4209-0.92969-0.93018c0-0.50977,0.41309-0.9292,0.92969-0.9292
					C51.10156,16.71631,51.51855,17.13574,51.51855,17.64551 M49.74121,19.39063h1.68457v5.35156h-1.68457V19.39063z"/>
				<polygon clip-path="url(#SVGID_6_)" fill="#008647" points="51.76855,19.39063 53.5625,19.39063 54.70313,22.34473 
					55.85059,19.39063 57.63281,19.39063 55.17383,24.85449 54.23828,24.85449 				"/>
				<path clip-path="url(#SVGID_6_)" fill="#008647" d="M63.40039,23.4209c-0.39551,0.2793-0.52539,0.30176-0.6377,0.30176
					c-0.17578,0-0.28125-0.10547-0.28125-0.37207v-2.45117c0-1.17188-0.91895-1.62207-2.26953-1.62207
					c-0.84961,0-1.62988,0.21875-2.32617,0.64648v1.37207c0.5332-0.55176,1.30273-0.89941,1.97754-0.89941
					c0.73633,0,0.97168,0.39746,0.93359,0.89941c-2.24902,0.7002-3.1875,0.95898-3.1875,2.24219
					c0,0.6748,0.63867,1.31641,1.49609,1.31641c0.58008,0,1.12012-0.16211,1.77246-0.60645
					c0.11816,0.43066,0.38574,0.60645,0.94629,0.60645c0.45117,0,1.1084-0.21094,1.57617-0.4873V23.4209 M60.79688,23.44336
					c-0.27832,0.25684-0.61719,0.4082-0.93359,0.4082c-0.30762,0-0.54883-0.25879-0.54883-0.57227
					c0-0.53906,0.48242-0.76855,1.48242-1.13184V23.44336z"/>
				<polygon clip-path="url(#SVGID_6_)" fill="#008647" points="26.8877,8.27881 28.08789,10.36279 25.89551,14.16309 
					31.27051,14.16309 33.46582,10.36279 35.87012,10.36279 32.47705,16.24609 24.69287,16.24609 23.48877,14.16309 				"/>
				<polygon clip-path="url(#SVGID_6_)" fill="#008647" points="33.46582,16.24609 34.66992,14.16309 39.05664,14.16309 
					36.36719,9.50586 31.97852,9.50586 30.7749,7.42139 37.57031,7.42139 41.45898,14.16309 40.25879,16.24609 				"/>
				<polygon clip-path="url(#SVGID_6_)" fill="#008647" points="37.0752,6.56543 34.66992,6.56543 32.47705,2.76465 
					29.78418,7.42188 31.97852,11.22217 30.7749,13.30518 27.38135,7.42188 31.27051,0.68311 33.67676,0.68311 				"/>
				<rect x="1.54395" y="28.04492" clip-path="url(#SVGID_6_)" fill="#FF0000" width="61.85645" height="0.94238"/>
				<polygon clip-path="url(#SVGID_6_)" fill="#282525" points="2.87695,34.19434 2.104,31.60938 1.45361,31.60938 
					2.63965,35.20313 3.11426,35.20313 4.30029,31.60938 3.6499,31.60938 				"/>
				<rect x="4.6499" y="31.60938" clip-path="url(#SVGID_6_)" fill="#282525" width="0.61572" height="3.59375"/>
				<polygon clip-path="url(#SVGID_6_)" fill="#282525" points="5.99609,35.20313 8.32275,35.20313 8.32275,34.61719 
					6.61182,34.61719 6.61182,33.66992 8.07129,33.66992 8.07129,33.11328 6.61182,33.11328 6.61182,32.19531 8.32275,32.19531 
					8.32275,31.60938 5.99609,31.60938 				"/>
				<polygon clip-path="url(#SVGID_6_)" fill="#282525" points="10.91211,34.01855 9.37891,31.60938 8.81152,31.60938 
					8.81152,35.20313 9.42725,35.20313 9.42725,32.79395 10.96045,35.20313 11.52783,35.20313 11.52783,31.60938 10.91211,31.60938 
									"/>
				<polygon clip-path="url(#SVGID_6_)" fill="#282525" points="14.3584,34.01855 12.82568,31.60938 12.2583,31.60938 
					12.2583,35.20313 12.87402,35.20313 12.87402,32.79395 14.40723,35.20313 14.97412,35.20313 14.97412,31.60938 
					14.3584,31.60938 				"/>
				<path clip-path="url(#SVGID_6_)" fill="#282525" d="M16.62939,31.60938l-1.30762,3.59375h0.65137l0.271-0.7832h1.27197
					l0.27148,0.7832h0.65137l-1.30762-3.59375H16.62939z M17.33545,33.8623h-0.91016l0.45508-1.37402L17.33545,33.8623z"/>
				<rect x="20.26563" y="31.60938" clip-path="url(#SVGID_6_)" fill="#282525" width="0.61572" height="3.59375"/>
				<polygon clip-path="url(#SVGID_6_)" fill="#282525" points="23.71191,34.01855 22.1792,31.60938 21.61182,31.60938 
					21.61182,35.20313 22.22754,35.20313 22.22754,32.79395 23.76074,35.20313 24.32813,35.20313 24.32813,31.60938 
					23.71191,31.60938 				"/>
				<path clip-path="url(#SVGID_6_)" fill="#282525" d="M27.21924,33.44922c-0.08398-0.09766-0.19092-0.18066-0.31787-0.24707
					c-0.12695-0.06543-0.27881-0.10938-0.45068-0.13086c-0.08691-0.00977-0.16406-0.01953-0.23096-0.0293l-0.17139-0.02539
					c-0.1709-0.02539-0.29443-0.0791-0.36621-0.16113c-0.07275-0.08203-0.10791-0.16602-0.10791-0.25684
					c0-0.15918,0.05127-0.27441,0.15723-0.35254c0.10791-0.08008,0.24316-0.12012,0.40137-0.12012
					c0.15625,0,0.30859,0.02441,0.45361,0.07324s0.28369,0.11523,0.41211,0.19727l0.03418,0.02148l0.34912-0.51758l-0.03564-0.02246
					c-0.16602-0.10938-0.35059-0.2002-0.54834-0.27246c-0.19873-0.07227-0.41406-0.1084-0.63965-0.1084
					c-0.18896,0-0.35986,0.02734-0.50879,0.08105c-0.14941,0.05371-0.27783,0.12988-0.38232,0.22559
					c-0.10498,0.0957-0.18604,0.21191-0.23975,0.34473c-0.0542,0.13281-0.08154,0.28027-0.08154,0.44043
					c0,0.27148,0.08496,0.50586,0.25244,0.69629c0.16748,0.18945,0.41553,0.30859,0.73682,0.35352l0.24756,0.03516
					c0.0708,0.01074,0.14648,0.02051,0.22754,0.03027c0.15039,0.01953,0.26123,0.06836,0.32959,0.14746
					c0.06836,0.08008,0.10303,0.17871,0.10303,0.2959c0,0.13867-0.05615,0.24609-0.17188,0.3291
					c-0.11816,0.08594-0.28564,0.12891-0.49756,0.12891c-0.18604,0-0.36621-0.03223-0.53564-0.0957
					c-0.17041-0.06348-0.32422-0.14941-0.45801-0.25391l-0.03125-0.02441l-0.41162,0.46973l0.03125,0.02832
					c0.19531,0.1709,0.41162,0.29883,0.64453,0.38086c0.23193,0.08203,0.48633,0.12305,0.75586,0.12305
					c0.39453,0,0.71289-0.09473,0.94678-0.28125c0.23633-0.18945,0.35596-0.45996,0.35596-0.80469
					c0-0.125-0.021-0.24902-0.06299-0.36914C27.3667,33.65723,27.30273,33.54688,27.21924,33.44922"/>
				<path clip-path="url(#SVGID_6_)" fill="#282525" d="M29.92871,33.91406c0,0.11621-0.01758,0.21875-0.05176,0.30566
					c-0.03369,0.08594-0.08105,0.15918-0.14063,0.2168c-0.05957,0.05859-0.13086,0.10352-0.2124,0.13379
					c-0.16406,0.0625-0.37354,0.0625-0.5376,0c-0.08105-0.03027-0.15283-0.0752-0.2124-0.13379
					c-0.05957-0.05762-0.10693-0.13086-0.14063-0.2168c-0.03418-0.08691-0.05127-0.18945-0.05127-0.30566v-2.30469h-0.61572v2.36426
					c0,0.18848,0.0332,0.3623,0.09961,0.5166c0.06543,0.1543,0.15869,0.28711,0.27588,0.39648
					c0.1167,0.1084,0.25488,0.19434,0.41016,0.25488s0.32471,0.0918,0.50342,0.0918s0.34766-0.03125,0.50293-0.0918
					s0.29346-0.14648,0.41016-0.25488c0.11768-0.10938,0.21045-0.24219,0.27637-0.39648s0.09961-0.32813,0.09961-0.5166v-2.36426
					h-0.61572V33.91406z"/>
				<path clip-path="url(#SVGID_6_)" fill="#282525" d="M33.54199,33.25488c0.125-0.17871,0.1875-0.3877,0.1875-0.62207
					c0-0.16406-0.03516-0.31445-0.10547-0.44922c-0.07031-0.13184-0.15723-0.24414-0.25879-0.33203
					c-0.09961-0.08594-0.21094-0.14844-0.33301-0.18652c-0.12012-0.03711-0.25781-0.05566-0.40918-0.05566h-1.4126v3.59375h0.61621
					V33.7041h0.61279l0.71289,1.47559l0.01172,0.02344h0.72559l-0.82324-1.57715
					C33.2666,33.54688,33.42578,33.42188,33.54199,33.25488 M31.82666,32.16602h0.7915c0.08691,0,0.15918,0.00879,0.21436,0.02539
					c0.05469,0.0166,0.10498,0.04199,0.15088,0.0752c0.0498,0.03516,0.08887,0.08398,0.11719,0.14355
					c0.02832,0.0625,0.04297,0.13672,0.04297,0.22266c0,0.07031-0.01172,0.13672-0.03418,0.19629
					c-0.02246,0.06055-0.05762,0.11621-0.10254,0.16406s-0.10254,0.08594-0.17236,0.11328
					c-0.07031,0.02734-0.15332,0.04199-0.24609,0.04199h-0.76172V32.16602z"/>
				<path clip-path="url(#SVGID_6_)" fill="#282525" d="M35.71875,31.60938H35.2168l-1.30762,3.59375h0.65137l0.27148-0.7832
					h1.27246l0.27051,0.7832h0.65137l-1.29688-3.56641L35.71875,31.60938z M35.92285,33.8623H35.0127l0.45508-1.37305
					L35.92285,33.8623z"/>
				<polygon clip-path="url(#SVGID_6_)" fill="#282525" points="39.47461,34.01855 37.9541,31.62891 37.94141,31.60938 
					37.37402,31.60938 37.37402,35.20313 37.99023,35.20313 37.99023,32.79492 39.51074,35.18457 39.52246,35.20313 
					40.09082,35.20313 40.09082,31.60938 39.47461,31.60938 				"/>
				<path clip-path="url(#SVGID_6_)" fill="#282525" d="M42.67969,34.13965c-0.14453,0.31348-0.35742,0.46582-0.64844,0.46582
					c-0.12012,0-0.22461-0.02441-0.30957-0.07324c-0.08789-0.04883-0.15918-0.10742-0.21387-0.1748
					c-0.03418-0.04004-0.06152-0.08105-0.08301-0.12207c-0.01953-0.04102-0.03711-0.0957-0.05176-0.16211
					c-0.01465-0.06836-0.02441-0.15723-0.0293-0.26563s-0.00781-0.25781-0.00781-0.44238s0.00293-0.33301,0.00781-0.44238
					c0.00488-0.10742,0.01465-0.19727,0.0293-0.26563c0.01465-0.06543,0.03223-0.11914,0.05176-0.1582
					c0.02148-0.04004,0.0498-0.08301,0.08398-0.12695c0.05371-0.06543,0.125-0.12402,0.21289-0.17383
					c0.08496-0.04785,0.18945-0.07227,0.30957-0.07227c0.0791,0,0.1543,0.0127,0.22461,0.04004
					c0.07227,0.02637,0.13574,0.0625,0.19141,0.10645c0.05469,0.04492,0.10254,0.09668,0.14258,0.15527
					c0.03906,0.05859,0.06836,0.12109,0.08789,0.1875l0.00879,0.0293h0.65625l-0.00879-0.04883
					c-0.02832-0.14844-0.0791-0.29102-0.15039-0.42285c-0.07324-0.13379-0.16699-0.25195-0.2793-0.35254
					c-0.1123-0.09961-0.24316-0.17969-0.38867-0.2373c-0.14551-0.05664-0.30859-0.08594-0.48438-0.08594
					c-0.14453,0-0.28027,0.02051-0.40332,0.06055c-0.12305,0.03906-0.23438,0.09082-0.33008,0.15332
					c-0.09766,0.0625-0.18262,0.13477-0.25391,0.21387c-0.07031,0.0791-0.12891,0.16016-0.17383,0.23926
					c-0.03125,0.05664-0.05762,0.11035-0.07617,0.16016c-0.01953,0.05176-0.03613,0.11719-0.0498,0.20117
					c-0.01367,0.08301-0.02344,0.1875-0.02832,0.32129c-0.00488,0.13086-0.00781,0.30566-0.00781,0.51855
					c0,0.21387,0.00293,0.38867,0.00781,0.51855c0.00488,0.13379,0.01465,0.23828,0.02832,0.32129
					c0.01367,0.08398,0.03027,0.15039,0.0498,0.20215c0.01953,0.0498,0.04492,0.10352,0.07617,0.15918
					c0.04492,0.08008,0.10352,0.16016,0.17383,0.23926c0.07129,0.08008,0.15625,0.15234,0.25293,0.21484
					c0.09766,0.0625,0.20801,0.11328,0.33105,0.15332c0.12207,0.04004,0.25879,0.05957,0.40332,0.05957
					c0.15918,0,0.31055-0.02344,0.4502-0.07031s0.26855-0.11523,0.38281-0.20605c0.11426-0.08984,0.21289-0.20215,0.29297-0.33398
					c0.0791-0.13086,0.13867-0.28418,0.17676-0.45605l0.01074-0.05078h-0.65332L42.67969,34.13965z"/>
				<polygon clip-path="url(#SVGID_6_)" fill="#282525" points="43.70215,35.20313 46.02832,35.20313 46.02832,34.61719 
					44.31738,34.61719 44.31738,33.66992 45.77734,33.66992 45.77734,33.11328 44.31738,33.11328 44.31738,32.19531 
					46.02832,32.19531 46.02832,31.60938 43.70215,31.60938 				"/>
				<path clip-path="url(#SVGID_6_)" fill="#282525" d="M49.56543,33.74023h0.73145v0.14453
					c0,0.10547-0.01855,0.2041-0.05469,0.29199c-0.03711,0.08887-0.08691,0.16602-0.14746,0.22949
					c-0.06152,0.0625-0.13477,0.1123-0.21875,0.14648c-0.08398,0.03516-0.17578,0.05273-0.27441,0.05273
					c-0.12012,0-0.22461-0.02441-0.30957-0.07324c-0.08789-0.04883-0.15918-0.10742-0.21387-0.1748
					c-0.03418-0.04004-0.06152-0.08105-0.08301-0.12207c-0.01953-0.04102-0.03711-0.0957-0.05176-0.16211
					c-0.01465-0.06836-0.02441-0.15723-0.0293-0.26563s-0.00781-0.25781-0.00781-0.44238s0.00293-0.33301,0.00781-0.44141
					s0.01465-0.19824,0.0293-0.26563s0.03223-0.12012,0.05176-0.15918c0.02148-0.04004,0.0498-0.08301,0.08398-0.12695
					c0.05371-0.06543,0.125-0.12402,0.21289-0.17383c0.08496-0.04785,0.18945-0.07227,0.30957-0.07227
					c0.07813,0,0.1543,0.0127,0.22461,0.04004c0.07227,0.02637,0.13574,0.0625,0.19141,0.10645
					c0.05469,0.04492,0.10254,0.09668,0.14258,0.15527c0.03906,0.05859,0.06836,0.12109,0.08789,0.1875l0.00879,0.03027h0.65625
					l-0.00879-0.0498c-0.02832-0.14844-0.0791-0.29102-0.15039-0.42285c-0.07324-0.13379-0.16699-0.25195-0.2793-0.35254
					c-0.1123-0.09961-0.24316-0.17969-0.38867-0.2373c-0.14551-0.05664-0.30859-0.08594-0.48438-0.08594
					c-0.14453,0-0.28027,0.02051-0.40332,0.06055c-0.12305,0.03906-0.23438,0.09082-0.33105,0.15332
					s-0.18164,0.13477-0.25293,0.21387c-0.07031,0.0791-0.12891,0.16016-0.17383,0.23926
					c-0.03125,0.05664-0.05762,0.11035-0.07617,0.16016c-0.01953,0.05176-0.03613,0.11719-0.0498,0.20215
					c-0.01367,0.08203-0.02344,0.18652-0.02832,0.32031c-0.00488,0.13086-0.00781,0.30566-0.00781,0.51855
					c0,0.21387,0.00293,0.38867,0.00781,0.51855c0.00488,0.13379,0.01465,0.23828,0.02832,0.32129
					c0.01367,0.08398,0.03027,0.15039,0.0498,0.20215c0.01953,0.0498,0.04492,0.10352,0.07617,0.15918
					c0.04492,0.08008,0.10352,0.16016,0.17383,0.23926c0.07129,0.08008,0.15625,0.15234,0.25293,0.21484
					c0.09766,0.0625,0.20801,0.11328,0.33105,0.15332c0.12207,0.04004,0.25879,0.05957,0.40332,0.05957
					c0.18262,0,0.35742-0.03418,0.51855-0.10156c0.16016-0.06738,0.30273-0.16211,0.42188-0.28125s0.21387-0.26074,0.28125-0.41895
					c0.06738-0.15918,0.10156-0.33301,0.10156-0.5166v-0.77246h-1.35938V33.74023z"/>
				<path clip-path="url(#SVGID_6_)" fill="#282525" d="M53.87598,33.25488c0.125-0.17871,0.1875-0.3877,0.1875-0.62207
					c0-0.16406-0.03516-0.31445-0.10547-0.44922c-0.07031-0.13184-0.15723-0.24414-0.25879-0.33203
					c-0.09961-0.08594-0.21191-0.14844-0.33301-0.18652c-0.12012-0.03711-0.25781-0.05566-0.40918-0.05566h-1.41211v3.59375h0.61523
					V33.7041h0.61328l0.71289,1.47559l0.01172,0.02344h0.72559l-0.82324-1.57715
					C53.60059,33.54688,53.75977,33.42188,53.87598,33.25488 M52.16016,32.16602h0.79199c0.08691,0,0.15918,0.00879,0.21484,0.02539
					c0.05371,0.0166,0.10449,0.04199,0.15039,0.0752c0.0498,0.03516,0.08887,0.08398,0.11719,0.14355
					c0.02832,0.0625,0.04297,0.13672,0.04297,0.22266c0,0.07031-0.01172,0.13672-0.03418,0.19629
					c-0.02246,0.06055-0.05762,0.11621-0.10254,0.16406s-0.10254,0.08594-0.17188,0.11328
					c-0.07031,0.02734-0.15332,0.04199-0.24609,0.04199h-0.7627V32.16602z"/>
				<path clip-path="url(#SVGID_6_)" fill="#282525" d="M57.12402,32.52539c-0.01367-0.08398-0.03027-0.14941-0.0498-0.20117
					c-0.01953-0.05078-0.04492-0.10449-0.0752-0.16016c-0.04492-0.0791-0.10352-0.15918-0.1748-0.23926
					s-0.15625-0.15234-0.25293-0.21387c-0.09766-0.0625-0.20801-0.11426-0.33008-0.15332
					c-0.24805-0.08008-0.56152-0.08008-0.80762,0c-0.12305,0.03906-0.23438,0.09082-0.33008,0.15332
					c-0.09766,0.0625-0.18262,0.13477-0.25391,0.21387c-0.07031,0.0791-0.12891,0.16016-0.17383,0.23926
					c-0.03125,0.05664-0.05762,0.11035-0.07617,0.16016c-0.01953,0.05176-0.03613,0.11719-0.0498,0.20117
					c-0.01367,0.08301-0.02344,0.1875-0.02832,0.32129c-0.00488,0.13086-0.00781,0.30566-0.00781,0.51855
					c0,0.21387,0.00293,0.38867,0.00781,0.51855c0.00488,0.13379,0.01465,0.23828,0.02832,0.32129
					c0.01367,0.08398,0.03027,0.15039,0.0498,0.20215c0.01953,0.0498,0.04492,0.10352,0.07617,0.15918
					c0.04492,0.08008,0.10352,0.16016,0.17383,0.23926c0.07129,0.08008,0.15625,0.15234,0.25293,0.21484
					c0.09766,0.0625,0.20801,0.11328,0.33105,0.15332c0.12207,0.04004,0.25879,0.05957,0.40332,0.05957
					c0.14551,0,0.28125-0.01953,0.4043-0.05957c0.12207-0.04004,0.23242-0.09082,0.33008-0.15332
					c0.09668-0.0625,0.18164-0.13477,0.25293-0.21484c0.07129-0.0791,0.12988-0.16016,0.1748-0.23926
					c0.03027-0.05469,0.05566-0.1084,0.0752-0.15918c0.01953-0.05176,0.03613-0.11816,0.05078-0.20215
					c0.0127-0.08301,0.02246-0.19043,0.02832-0.32129c0.00488-0.12988,0.00684-0.30469,0.00684-0.51855
					c0-0.21289-0.00195-0.3877-0.00684-0.51855C57.14746,32.7168,57.1377,32.6084,57.12402,32.52539 M55.83691,32.12598
					c0.12012,0,0.22461,0.02441,0.31055,0.07227c0.08691,0.0498,0.1582,0.1084,0.21094,0.17188
					c0.03223,0.04688,0.06055,0.08984,0.08301,0.12988c0.02148,0.03906,0.04004,0.0918,0.05371,0.15723
					c0.01465,0.06836,0.02441,0.1582,0.0293,0.2666s0.00781,0.25684,0.00781,0.44141s-0.00293,0.33398-0.00781,0.44238
					s-0.01465,0.19727-0.0293,0.26563c-0.01465,0.06641-0.03223,0.12012-0.05371,0.16016
					c-0.02246,0.04199-0.05078,0.08398-0.08203,0.125c-0.05371,0.06641-0.125,0.125-0.21191,0.17383
					c-0.08594,0.04883-0.19043,0.07324-0.31055,0.07324s-0.22461-0.02441-0.30957-0.07324
					c-0.08789-0.04883-0.15918-0.10742-0.21387-0.1748c-0.03418-0.04004-0.06152-0.08105-0.08301-0.12207
					c-0.01953-0.04102-0.03711-0.0957-0.05176-0.16211c-0.01465-0.06836-0.02441-0.15723-0.0293-0.26563
					s-0.00781-0.25781-0.00781-0.44238s0.00293-0.33301,0.00781-0.44141s0.01465-0.19824,0.0293-0.2666
					c0.01465-0.06543,0.03223-0.11914,0.05176-0.1582c0.02148-0.04004,0.0498-0.08301,0.08398-0.12695
					c0.05371-0.06543,0.125-0.12402,0.21289-0.17383C55.6123,32.15039,55.7168,32.12598,55.83691,32.12598"/>
				<path clip-path="url(#SVGID_6_)" fill="#282525" d="M59.67773,33.91406c0,0.11621-0.0166,0.21875-0.05078,0.30566
					c-0.03418,0.08594-0.08105,0.15918-0.14063,0.2168c-0.05957,0.05859-0.13184,0.10352-0.21289,0.13379
					c-0.16406,0.0625-0.37305,0.0625-0.53711,0c-0.08105-0.03027-0.15332-0.0752-0.21289-0.13379
					c-0.05957-0.05762-0.10645-0.13086-0.14063-0.2168c-0.03418-0.08691-0.05078-0.18945-0.05078-0.30566v-2.30469h-0.61621v2.36426
					c0,0.18848,0.0332,0.3623,0.09961,0.5166c0.06543,0.1543,0.1582,0.28711,0.27637,0.39648
					c0.11621,0.1084,0.25488,0.19434,0.41016,0.25488s0.32422,0.0918,0.50293,0.0918s0.34766-0.03125,0.50293-0.0918
					c0.15625-0.06055,0.29395-0.14648,0.41016-0.25488c0.11816-0.10938,0.21094-0.24219,0.27637-0.39648
					c0.06641-0.15332,0.09961-0.32813,0.09961-0.5166v-2.36426h-0.61621V33.91406z"/>
				<path clip-path="url(#SVGID_6_)" fill="#282525" d="M63.36816,32.2168c-0.0752-0.14746-0.16992-0.2666-0.28027-0.35254
					c-0.1416-0.1084-0.2793-0.17871-0.41016-0.20898c-0.12695-0.03027-0.2627-0.0459-0.4043-0.0459h-1.31348v3.59375h0.61621
					v-1.37012h0.7666c0.18652,0,0.35254-0.0332,0.49316-0.09766s0.26074-0.15039,0.35645-0.25684
					c0.0957-0.10547,0.16797-0.22363,0.21777-0.35254c0.04883-0.12988,0.07422-0.26172,0.07422-0.38965
					C63.48438,32.53906,63.44531,32.36426,63.36816,32.2168 M62.86816,32.7207c0,0.06445-0.01172,0.12793-0.03418,0.19043
					s-0.05664,0.11914-0.10059,0.16992c-0.04395,0.04883-0.10059,0.08887-0.16797,0.12012
					c-0.06836,0.03027-0.14941,0.04492-0.24219,0.04492h-0.74707v-1.05078h0.72754c0.07129,0,0.13672,0.00684,0.19238,0.01953
					c0.05469,0.01172,0.10938,0.03613,0.16309,0.07227c0.06055,0.04199,0.11133,0.09863,0.15039,0.16602
					S62.86816,32.61133,62.86816,32.7207"/>
			</g>
		</g>
	</g>
</g>
</svg>
