<?xml version="1.0" encoding="UTF-8"?>
<!DOCTYPE svg PUBLIC "-//W3C//DTD SVG 1.1//EN" "http://www.w3.org/Graphics/SVG/1.1/DTD/svg11.dtd">
<!-- Creator: CorelDRAW X5 -->
<svg xmlns="http://www.w3.org/2000/svg" xml:space="preserve" width="61px" height="48px" shape-rendering="geometricPrecision" text-rendering="geometricPrecision" image-rendering="optimizeQuality" fill-rule="evenodd" clip-rule="evenodd"
viewBox="0 0 6100000 4834446"
 xmlns:xlink="http://www.w3.org/1999/xlink">
 <g id="Vrstva_x0020_1">
  <metadata id="CorelCorpID_0Corel-Layer"/>
  <g id="_409564360">
   <path fill="#008DD2" d="M1899178 4750156c-2432,-49542 -2432,-62536 -2834,-106381 5682,0 10963,402 18274,402 48323,0 93797,-8531 117359,-47914 8115,-13410 12183,-29245 12183,-45481 0,-28018 -11788,-65384 -56853,-79999 -19501,-6084 -40201,-6084 -67006,-6084l-26805 796c-7304,0 -37761,825 -44254,825l-2038 2848c3666,61711 3666,126277 3666,189229 0,47505 -416,67400 -1220,92986l2432 2899c21116,-1205 22335,-1205 44663,-1205l2432 -2920zm-3236 -139278c0,-18281 -409,-36549 -409,-54816 0,-19092 409,-38177 409,-56861 10963,-804 16229,-1614 36541,-1614 17055,0 47914,409 61316,28420 3659,8129 4865,17055 4865,25184 0,10145 -2016,20707 -6902,29223 -14206,25191 -43444,28032 -54400,28843 -10970,1213 -27609,1213 -41420,1622z"/>
   <path fill="none" stroke="#008DD2" stroke-width="545.287" d="M1899178 4750156c-2432,-49542 -2432,-62536 -2834,-106381 5682,0 10963,402 18274,402 48323,0 93797,-8531 117359,-47914 8115,-13410 12183,-29245 12183,-45481 0,-28018 -11788,-65384 -56853,-79999 -19501,-6084 -40201,-6084 -67006,-6084l-26805 796c-7304,0 -37761,825 -44254,825l-2038 2848c3666,61711 3666,126277 3666,189229 0,47505 -416,67400 -1220,92986l2432 2899c21116,-1205 22335,-1205 44663,-1205l2432 -2920zm-3236 -139278c0,-18281 -409,-36549 -409,-54816 0,-19092 409,-38177 409,-56861 10963,-804 16229,-1614 36541,-1614 17055,0 47914,409 61316,28420 3659,8129 4865,17055 4865,25184 0,10145 -2016,20707 -6902,29223 -14206,25191 -43444,28032 -54400,28843 -10970,1213 -27609,1213 -41420,1622z"/>
   <path fill="#008DD2" d="M2209310 4759167c79999,0 132383,-51235 132383,-148289 0,-94206 -50762,-150650 -131163,-150650 -84060,0 -132777,60498 -132777,151468 0,90145 47512,147063 131558,147472zm811 -34181c-30041,0 -52785,-14622 -66590,-38177 -13812,-23957 -16660,-58475 -16660,-77962 0,-18267 2848,-56452 18281,-80401 8524,-13812 28011,-34518 65377,-34518 9743,0 44262,409 65370,34927 15440,25169 17471,64968 17471,79992 0,61725 -23548,116541 -83250,116139z"/>
   <path fill="none" stroke="#008DD2" stroke-width="545.287" d="M2209310 4759167c79999,0 132383,-51235 132383,-148289 0,-94206 -50762,-150650 -131163,-150650 -84060,0 -132777,60498 -132777,151468 0,90145 47512,147063 131558,147472zm811 -34181c-30041,0 -52785,-14622 -66590,-38177 -13812,-23957 -16660,-58475 -16660,-77962 0,-18267 2848,-56452 18281,-80401 8524,-13812 28011,-34518 65377,-34518 9743,0 44262,409 65370,34927 15440,25169 17471,64968 17471,79992 0,61725 -23548,116541 -83250,116139z"/>
   <path fill="#008DD2" d="M2382597 4752193c7304,1679 15433,3315 30048,3315 73499,0 75522,-53668 75522,-86966 0,-15842 0,-30457 -402,-36549l0 -36549c-402,-36950 -402,-41420 1622,-127511l-2023 -2841c-21524,818 -28427,818 -45481,1227l-2432 2848c2432,51558 3243,103533 3243,155522 0,63339 -1220,67400 -4470,75113 -8524,19092 -26798,19092 -32889,19092 -10152,0 -15835,-1622 -22335,-3257l-2906 2038c409,7713 409,15031 409,18676l0 12592 2095 3250z"/>
   <path fill="none" stroke="#008DD2" stroke-width="545.287" d="M2382597 4752193c7304,1679 15433,3315 30048,3315 73499,0 75522,-53668 75522,-86966 0,-15842 0,-30457 -402,-36549l0 -36549c-402,-36950 -402,-41420 1622,-127511l-2023 -2841c-21524,818 -28427,818 -45481,1227l-2432 2848c2432,51558 3243,103533 3243,155522 0,63339 -1220,67400 -4470,75113 -8524,19092 -26798,19092 -32889,19092 -10152,0 -15835,-1622 -22335,-3257l-2906 2038c409,7713 409,15031 409,18676l0 12592 2095 3250z"/>
   <path fill="#008DD2" d="M2640748 4464698c-20707,1213 -27214,1213 -45079,1213l-2030 3257c2841,60972 2841,122015 2841,183403 0,52448 -811,73965 -1622,98812l2425 2899c21546,-811 27214,-811 45079,-1277l2432 -2848c-2432,-41894 -3243,-75257 -3243,-153290 0,-69983 811,-102127 2030,-129334l-2834 -2834z"/>
   <path fill="none" stroke="#008DD2" stroke-width="545.287" d="M2640748 4464698c-20707,1213 -27214,1213 -45079,1213l-2030 3257c2841,60972 2841,122015 2841,183403 0,52448 -811,73965 -1622,98812l2425 2899c21546,-811 27214,-811 45079,-1277l2432 -2848c-2432,-41894 -3243,-75257 -3243,-153290 0,-69983 811,-102127 2030,-129334l-2834 -2834z"/>
   <path fill="#008DD2" d="M2823792 4581640c-24373,-10561 -25994,-11372 -31282,-14622 -8531,-5281 -20707,-13804 -20707,-32072 0,-23964 21116,-39799 54830,-39799 30450,0 49528,9751 66999,18676l3265 -1629c1191,-14608 1593,-20305 3236,-35723l-2045 -3257c-21517,-6895 -41004,-12986 -73076,-12986 -32904,0 -66597,8940 -85273,35731 -8531,12183 -12585,27616 -12585,42640 0,49535 38550,67006 67408,80408l20298 8925c26403,10152 49937,21116 49937,49542 0,24366 -17464,45890 -59278,45890 -37761,0 -61323,-17055 -71476,-23957l-4047 1607c-1220,15433 -1622,23160 -3243,37367l1622 2834c9715,4886 37331,17951 80387,17951 70672,0 104358,-41083 104358,-86564 0,-51989 -39383,-69036 -69051,-82023l-20276 -8940zm-25994 -139278c14206,0 37359,-409 51566,-409l2856 -2439c14199,-30048 15821,-33707 30450,-60922l-1213 -3236c-14228,818 -17464,402 -29639,0l-2863 2432c-8933,17873 -12577,24775 -21517,41829 -8933,-16653 -11767,-21919 -21108,-41427l-2425 -2016c-17062,811 -20326,811 -36147,402l-1643 3652c8531,15433 19516,39799 28850,60096l2834 2038z"/>
   <path fill="none" stroke="#008DD2" stroke-width="545.287" d="M2823792 4581640c-24373,-10561 -25994,-11372 -31282,-14622 -8531,-5281 -20707,-13804 -20707,-32072 0,-23964 21116,-39799 54830,-39799 30450,0 49528,9751 66999,18676l3265 -1629c1191,-14608 1593,-20305 3236,-35723l-2045 -3257c-21517,-6895 -41004,-12986 -73076,-12986 -32904,0 -66597,8940 -85273,35731 -8531,12183 -12585,27616 -12585,42640 0,49535 38550,67006 67408,80408l20298 8925c26403,10152 49937,21116 49937,49542 0,24366 -17464,45890 -59278,45890 -37761,0 -61323,-17055 -71476,-23957l-4047 1607c-1220,15433 -1622,23160 -3243,37367l1622 2834c9715,4886 37331,17951 80387,17951 70672,0 104358,-41083 104358,-86564 0,-51989 -39383,-69036 -69051,-82023l-20276 -8940zm-25994 -139278c14206,0 37359,-409 51566,-409l2856 -2439c14199,-30048 15821,-33707 30450,-60922l-1213 -3236c-14228,818 -17464,402 -29639,0l-2863 2432c-8933,17873 -12577,24775 -21517,41829 -8933,-16653 -11767,-21919 -21108,-41427l-2425 -2016c-17062,811 -20326,811 -36147,402l-1643 3652c8531,15433 19516,39799 28850,60096l2834 2038z"/>
   <path fill="#008DD2" d="M3158692 4498398c0,-11781 373,-16244 1614,-30464l-2023 -2841c-31282,402 -62543,818 -93804,818 -29259,409 -75960,409 -105190,409l-2030 2848c-804,14206 -804,15821 -1665,30034l2475 2848c36147,-1220 40193,-1220 75529,-1622 409,17456 1220,38974 1220,80401 0,56853 -409,113692 -2432,170553l2023 2899c22350,-1277 23562,-1277 46701,-1277l2454 -2848c-1213,-24359 -2863,-64559 -2863,-166478 0,-36147 0,-42647 811,-83250 34934,0 40624,0 74719,811l2461 -2841zm-125093 -56035c14228,0 37388,-409 51587,-409l2834 -2439c14228,-30048 15842,-33707 30450,-60922l-1213 -3236c-14206,818 -17471,402 -29639,0l-2841 2432c-8933,17873 -12599,24775 -21539,41829 -8911,-16653 -11767,-21919 -21108,-41427l-2432 -2016c-17055,811 -20298,811 -36140,402l-1622 3652c8531,15433 19487,39799 28828,60096l2834 2038z"/>
   <path fill="none" stroke="#008DD2" stroke-width="545.287" d="M3158692 4498398c0,-11781 373,-16244 1614,-30464l-2023 -2841c-31282,402 -62543,818 -93804,818 -29259,409 -75960,409 -105190,409l-2030 2848c-804,14206 -804,15821 -1665,30034l2475 2848c36147,-1220 40193,-1220 75529,-1622 409,17456 1220,38974 1220,80401 0,56853 -409,113692 -2432,170553l2023 2899c22350,-1277 23562,-1277 46701,-1277l2454 -2848c-1213,-24359 -2863,-64559 -2863,-166478 0,-36147 0,-42647 811,-83250 34934,0 40624,0 74719,811l2461 -2841zm-125093 -56035c14228,0 37388,-409 51587,-409l2834 -2439c14228,-30048 15842,-33707 30450,-60922l-1213 -3236c-14206,818 -17471,402 -29639,0l-2841 2432c-8933,17873 -12599,24775 -21539,41829 -8911,-16653 -11767,-21919 -21108,-41427l-2432 -2016c-17055,811 -20298,811 -36140,402l-1622 3652c8531,15433 19487,39799 28828,60096l2834 2038z"/>
   <path fill="#008DD2" d="M3306787 4759167c80007,0 132376,-51235 132376,-148289 0,-94206 -50748,-150650 -131163,-150650 -84060,0 -132785,60498 -132785,151468 0,90145 47512,147063 131572,147472zm804 -34181c-30041,0 -52800,-14622 -66590,-38177 -13819,-23957 -16653,-58475 -16653,-77962 0,-18267 2834,-56452 18274,-80401 8524,-13812 28018,-34518 65377,-34518 9772,0 44269,409 65377,34927 15440,25169 17464,64968 17464,79992 0,61725 -23541,116541 -83250,116139z"/>
   <path fill="none" stroke="#008DD2" stroke-width="545.287" d="M3306787 4759167c80007,0 132376,-51235 132376,-148289 0,-94206 -50748,-150650 -131163,-150650 -84060,0 -132785,60498 -132785,151468 0,90145 47512,147063 131572,147472zm804 -34181c-30041,0 -52800,-14622 -66590,-38177 -13819,-23957 -16653,-58475 -16653,-77962 0,-18267 2834,-56452 18274,-80401 8524,-13812 28018,-34518 65377,-34518 9772,0 44269,409 65377,34927 15440,25169 17464,64968 17464,79992 0,61725 -23541,116541 -83250,116139z"/>
   <path fill="#008DD2" d="M3619352 4750156c1622,-5682 3243,-10956 4857,-16244 11774,-41004 25593,-81607 38579,-122216 6909,-22751 38170,-123450 44671,-143762l-2023 -2841c-19085,1227 -21108,1227 -40602,1227l-2454 2848c-11365,42626 -23132,85266 -34906,127504l-36140 127504 -35336 -127913c-24351,-90159 -26805,-100304 -34116,-128329l-2841 -2841c-20298,818 -23964,1227 -46694,1227l-2023 2848c2023,6895 37761,122223 44649,145355 13819,45481 27207,91379 40215,136860l2834 2899c29259,-811 31261,-1277 58877,-1277l2454 -2848z"/>
   <path fill="none" stroke="#008DD2" stroke-width="545.287" d="M3619352 4750156c1622,-5682 3243,-10956 4857,-16244 11774,-41004 25593,-81607 38579,-122216 6909,-22751 38170,-123450 44671,-143762l-2023 -2841c-19085,1227 -21108,1227 -40602,1227l-2454 2848c-11365,42626 -23132,85266 -34906,127504l-36140 127504 -35336 -127913c-24351,-90159 -26805,-100304 -34116,-128329l-2841 -2841c-20298,818 -23964,1227 -46694,1227l-2023 2848c2023,6895 37761,122223 44649,145355 13819,45481 27207,91379 40215,136860l2834 2899c29259,-811 31261,-1277 58877,-1277l2454 -2848z"/>
   <path fill="#008DD2" d="M3995657 4733108c-811,-38177 -1220,-76749 -1220,-114912 0,-49951 811,-100713 1622,-150263l-2432 -2841c-16251,818 -20298,1227 -38572,1227l-2432 2848c1622,28018 2030,37345 3645,101101l3243 134822 -50346 -88932c-26776,-47103 -55225,-98675 -82841,-148225l-4054 -2841c-23160,818 -27207,818 -52391,1227l-2023 2848c2023,55218 2425,110844 2425,166069 0,38579 -402,77567 -2023,116146l2432 2899c19487,-1277 21108,-1277 38974,-1277l2461 -2848c-811,-16646 -811,-17449 -2052,-51157 -409,-17062 -1191,-33700 -1593,-50769l-4075 -139285 64165 114518c24344,42633 48315,85280 72258,127920l3243 2899c24373,-1277 26016,-1277 49966,-1277l2023 -2848 -402 -17047z"/>
   <path fill="none" stroke="#008DD2" stroke-width="545.287" d="M3995657 4733108c-811,-38177 -1220,-76749 -1220,-114912 0,-49951 811,-100713 1622,-150263l-2432 -2841c-16251,818 -20298,1227 -38572,1227l-2432 2848c1622,28018 2030,37345 3645,101101l3243 134822 -50346 -88932c-26776,-47103 -55225,-98675 -82841,-148225l-4054 -2841c-23160,818 -27207,818 -52391,1227l-2023 2848c2023,55218 2425,110844 2425,166069 0,38579 -402,77567 -2023,116146l2432 2899c19487,-1277 21108,-1277 38974,-1277l2461 -2848c-811,-16646 -811,-17449 -2052,-51157 -409,-17062 -1191,-33700 -1593,-50769l-4075 -139285 64165 114518c24344,42633 48315,85280 72258,127920l3243 2899c24373,-1277 26016,-1277 49966,-1277l2023 -2848 -402 -17047z"/>
   <path fill="#008DD2" d="M4203053 4467532l-2834 -2834c-25994,1213 -29639,1213 -58087,1622l-3243 2848c-11767,38974 -20699,65370 -45079,137240 -14601,43860 -29639,87569 -45051,131235 -1622,4054 -3265,8057 -4556,12513l1693 2920c20298,-1284 24373,-1284 41844,-1284l2834 -2848c9743,-35932 12197,-45682 23971,-83644 16244,0 34927,-409 52771,-409 16251,0 32093,409 48315,409 10583,36333 13826,47304 23971,85266l2834 2906c17062,-868 25994,-1277 47110,-1679l1643 -3257c-12204,-38773 -32502,-101115 -45108,-140089 -12169,-38579 -27587,-88939 -41004,-133610l-2023 -7304zm-35738 28018l38981 137247c-14199,0 -28807,402 -42626,402 -12986,0 -25994,-402 -38981,-402l42626 -137247z"/>
   <path fill="none" stroke="#008DD2" stroke-width="545.287" d="M4203053 4467532l-2834 -2834c-25994,1213 -29639,1213 -58087,1622l-3243 2848c-11767,38974 -20699,65370 -45079,137240 -14601,43860 -29639,87569 -45051,131235 -1622,4054 -3265,8057 -4556,12513l1693 2920c20298,-1284 24373,-1284 41844,-1284l2834 -2848c9743,-35932 12197,-45682 23971,-83644 16244,0 34927,-409 52771,-409 16251,0 32093,409 48315,409 10583,36333 13826,47304 23971,85266l2834 2906c17062,-868 25994,-1277 47110,-1679l1643 -3257c-12204,-38773 -32502,-101115 -45108,-140089 -12169,-38579 -27587,-88939 -41004,-133610l-2023 -7304zm-35738 28018l38981 137247c-14199,0 -28807,402 -42626,402 -12986,0 -25994,-402 -38981,-402l42626 -137247z"/>
   <path fill="#008DD2" d="M4659896 4750156c1622,-5682 3243,-10956 4857,-16244 11774,-41004 25593,-81607 38579,-122216 6909,-22751 38170,-123450 44671,-143762l-2023 -2841c-19085,1227 -21137,1227 -40624,1227l-2432 2848c-11365,42626 -23160,85266 -34927,127504l-36147 127504 -35307 -127913c-24373,-90159 -26805,-100304 -34116,-128329l-2841 -2841c-20298,818 -23964,1227 -46694,1227l-2030 2848c2030,6895 37740,122223 44649,145355 13826,45481 27214,91379 40201,136860l2856 2899c29237,-811 31261,-1277 58877,-1277l2454 -2848z"/>
   <path fill="none" stroke="#008DD2" stroke-width="545.287" d="M4659896 4750156c1622,-5682 3243,-10956 4857,-16244 11774,-41004 25593,-81607 38579,-122216 6909,-22751 38170,-123450 44671,-143762l-2023 -2841c-19085,1227 -21137,1227 -40624,1227l-2432 2848c-11365,42626 -23160,85266 -34927,127504l-36147 127504 -35307 -127913c-24373,-90159 -26805,-100304 -34116,-128329l-2841 -2841c-20298,818 -23964,1227 -46694,1227l-2030 2848c2030,6895 37740,122223 44649,145355 13826,45481 27214,91379 40201,136860l2856 2899c29237,-811 31261,-1277 58877,-1277l2454 -2848z"/>
   <path fill="#008DD2" d="M4976514 4751383c1213,-14622 1622,-19903 3243,-30866l-2432 -2432c-57657,1622 -70672,2023 -136451,2023 22321,-42633 45079,-85273 68240,-127906 39784,-73908 53603,-97463 68211,-122632l-2023 -4075c-13826,416 -30070,825 -58496,825 -41406,0 -83221,-409 -124656,-825l-2432 2848c-832,12183 -1213,15842 -2834,29245l2002 2841c59709,-825 81628,-825 122654,-825l-44671 84075c-29639,55612 -59278,110844 -90137,166076l2432 3717c16222,-466 32473,-466 36520,-466 50375,0 107630,0 157968,466l2863 -2088z"/>
   <path fill="none" stroke="#008DD2" stroke-width="545.287" d="M4976514 4751383c1213,-14622 1622,-19903 3243,-30866l-2432 -2432c-57657,1622 -70672,2023 -136451,2023 22321,-42633 45079,-85273 68240,-127906 39784,-73908 53603,-97463 68211,-122632l-2023 -4075c-13826,416 -30070,825 -58496,825 -41406,0 -83221,-409 -124656,-825l-2432 2848c-832,12183 -1213,15842 -2834,29245l2002 2841c59709,-825 81628,-825 122654,-825l-44671 84075c-29639,55612 -59278,110844 -90137,166076l2432 3717c16222,-466 32473,-466 36520,-466 50375,0 107630,0 157968,466l2863 -2088z"/>
   <path fill="#008DD2" d="M5086849 4750156c-2461,-49542 -2461,-62536 -2863,-106381 5697,0 10985,402 18303,402 48315,0 93797,-8531 117337,-47914 8129,-13410 12176,-29245 12176,-45481 0,-28018 -11767,-65384 -56825,-79999 -19516,-6084 -40215,-6084 -67020,-6084l-26805 796c-7290,0 -37768,825 -44269,825l-2023 2848c3666,61711 3666,126277 3666,189229 0,47505 -430,67400 -1241,92986l2454 2899c21116,-1205 22328,-1205 44649,-1205l2461 -2920zm-3243 -139278c0,-18281 -402,-36549 -402,-54816 0,-19092 402,-38177 402,-56861 10963,-804 16222,-1614 36549,-1614 17033,0 47892,409 61302,28420 3645,8129 4865,17055 4865,25184 0,10145 -2002,20707 -6888,29223 -14221,25191 -43458,28032 -54421,28843 -10956,1213 -27609,1213 -41406,1622z"/>
   <path fill="none" stroke="#008DD2" stroke-width="545.287" d="M5086849 4750156c-2461,-49542 -2461,-62536 -2863,-106381 5697,0 10985,402 18303,402 48315,0 93797,-8531 117337,-47914 8129,-13410 12176,-29245 12176,-45481 0,-28018 -11767,-65384 -56825,-79999 -19516,-6084 -40215,-6084 -67020,-6084l-26805 796c-7290,0 -37768,825 -44269,825l-2023 2848c3666,61711 3666,126277 3666,189229 0,47505 -430,67400 -1241,92986l2454 2899c21116,-1205 22328,-1205 44649,-1205l2461 -2920zm-3243 -139278c0,-18281 -402,-36549 -402,-54816 0,-19092 402,-38177 402,-56861 10963,-804 16222,-1614 36549,-1614 17033,0 47892,409 61302,28420 3645,8129 4865,17055 4865,25184 0,10145 -2002,20707 -6888,29223 -14221,25191 -43458,28032 -54421,28843 -10956,1213 -27609,1213 -41406,1622z"/>
   <path fill="#008DD2" d="M5267009 4704689c-21919,1213 -25966,1213 -45460,1622l-2454 2834c-4857,33707 -10145,56114 -21510,102808l1614 2432c14629,-804 15440,-804 28836,-804l2856 -2848c7699,-23153 23942,-69517 37768,-102801l-1650 -3243z"/>
   <path fill="none" stroke="#008DD2" stroke-width="545.287" d="M5267009 4704689c-21919,1213 -25966,1213 -45460,1622l-2454 2834c-4857,33707 -10145,56114 -21510,102808l1614 2432c14629,-804 15440,-804 28836,-804l2856 -2848c7699,-23153 23942,-69517 37768,-102801l-1650 -3243z"/>
   <path fill="#008DD2" d="M5631268 4629145c0,-17040 0,-39390 -2863,-50748 -8502,-31677 -37740,-41836 -67809,-41836 -23942,0 -47512,5281 -70242,13410l-2425 2425c-409,8531 -409,10970 -1220,29646l3243 2038c17033,-7318 35336,-15433 61732,-15433 20298,0 29618,7713 33693,15031 3666,6493 3666,14206 3666,25169l-6931 811c-73076,8538 -118564,25987 -118564,80401 0,40208 28427,67888 69029,67888 30880,0 49126,-14694 56875,-20785l-409 14629 1622 2490c18655,-811 21919,-1277 41004,-1679l2023 -2038c-2023,-26389 -2425,-30859 -2425,-81212l0 -40208zm-41815 9751l0 67809c-4484,4068 -19085,17873 -44269,17873 -38601,0 -38601,-34920 -38601,-36958 0,-36140 38192,-41815 79196,-47914l3674 -811z"/>
   <path fill="none" stroke="#008DD2" stroke-width="545.287" d="M5631268 4629145c0,-17040 0,-39390 -2863,-50748 -8502,-31677 -37740,-41836 -67809,-41836 -23942,0 -47512,5281 -70242,13410l-2425 2425c-409,8531 -409,10970 -1220,29646l3243 2038c17033,-7318 35336,-15433 61732,-15433 20298,0 29618,7713 33693,15031 3666,6493 3666,14206 3666,25169l-6931 811c-73076,8538 -118564,25987 -118564,80401 0,40208 28427,67888 69029,67888 30880,0 49126,-14694 56875,-20785l-409 14629 1622 2490c18655,-811 21919,-1277 41004,-1679l2023 -2038c-2023,-26389 -2425,-30859 -2425,-81212l0 -40208zm-41815 9751l0 67809c-4484,4068 -19085,17873 -44269,17873 -38601,0 -38601,-34920 -38601,-36958 0,-36140 38192,-41815 79196,-47914l3674 -811z"/>
   <path fill="#008DD2" d="M5730231 4703462c-18274,1227 -22321,1227 -43838,1629l-3265 3652c402,6895 402,13797 402,20714 0,7304 0,14608 -402,21510l2863 3315c23132,-1277 23942,-1277 45051,-2088l2863 -3659c-409,-16646 -409,-22737 0,-41829l-3674 -3243z"/>
   <path fill="none" stroke="#008DD2" stroke-width="545.287" d="M5730231 4703462c-18274,1227 -22321,1227 -43838,1629l-3265 3652c402,6895 402,13797 402,20714 0,7304 0,14608 -402,21510l2863 3315c23132,-1277 23942,-1277 45051,-2088l2863 -3659c-409,-16646 -409,-22737 0,-41829l-3674 -3243z"/>
   <path fill="#008DD2" d="M5928392 4625091c-25184,-7720 -41815,-12986 -41815,-30457 0,-12592 10152,-21123 22328,-24366 6099,-1622 11795,-2023 17464,-2023 26396,0 42245,9751 52369,16244l3666 -1636c1220,-15433 1622,-17055 3243,-32072l-2023 -2848c-7318,-2834 -28427,-11372 -58468,-11372 -45488,0 -82037,20714 -82037,62529 0,41836 36549,53610 53201,58891l12986 4470c24782,8122 42245,14213 42245,32889 0,12592 -11767,30457 -43867,30457 -31282,0 -49126,-13804 -56444,-19487l-4047 1205c-811,16251 -811,18281 -2454,34109l2052 3666c1995,811 4047,1614 6070,2425 15440,6156 33715,10231 55634,10231 14608,0 43458,-1227 64975,-19566 16653,-13395 22730,-31677 22730,-47914 0,-43049 -36958,-55634 -53180,-60914l-14629 -4463z"/>
   <path fill="none" stroke="#008DD2" stroke-width="545.287" d="M5928392 4625091c-25184,-7720 -41815,-12986 -41815,-30457 0,-12592 10152,-21123 22328,-24366 6099,-1622 11795,-2023 17464,-2023 26396,0 42245,9751 52369,16244l3666 -1636c1220,-15433 1622,-17055 3243,-32072l-2023 -2848c-7318,-2834 -28427,-11372 -58468,-11372 -45488,0 -82037,20714 -82037,62529 0,41836 36549,53610 53201,58891l12986 4470c24782,8122 42245,14213 42245,32889 0,12592 -11767,30457 -43867,30457 -31282,0 -49126,-13804 -56444,-19487l-4047 1205c-811,16251 -811,18281 -2454,34109l2052 3666c1995,811 4047,1614 6070,2425 15440,6156 33715,10231 55634,10231 14608,0 43458,-1227 64975,-19566 16653,-13395 22730,-31677 22730,-47914 0,-43049 -36958,-55634 -53180,-60914l-14629 -4463z"/>
   <path fill="#008DD2" d="M6085421 4703462c-18274,1227 -22321,1227 -43838,1629l-3265 3652c409,6895 409,13797 409,20714 0,7304 0,14608 -409,21510l2863 3315c23132,-1277 23942,-1277 45051,-2088l2863 -3659c-402,-16646 -402,-22737 0,-41829l-3674 -3243z"/>
   <path fill="none" stroke="#008DD2" stroke-width="545.287" d="M6085421 4703462c-18274,1227 -22321,1227 -43838,1629l-3265 3652c409,6895 409,13797 409,20714 0,7304 0,14608 -409,21510l2863 3315c23132,-1277 23942,-1277 45051,-2088l2863 -3659c-402,-16646 -402,-22737 0,-41829l-3674 -3243z"/>
   <path fill="#E53A24" d="M1140433 3842747l1886838 -3243756c80667,-130202 267722,-132024 341070,0l1364251 2427777c66008,128358 40344,311725 -187026,319065l-1102047 -1830 289713 498744 909503 0c399739,-3666 863671,-496915 533585,-1081857l-1400901 -2418600c-240228,-401590 -876499,-447430 -1147887,-11013l-2072042 3511471 584943 0z"/>
   <path fill="none" stroke="#E53A24" stroke-width="545.287" d="M1140433 3842747l1886838 -3243756c80667,-130202 267722,-132024 341070,0l1364251 2427777c66008,128358 40344,311725 -187026,319065l-1102047 -1830 289713 498744 909503 0c399739,-3666 863671,-496915 533585,-1081857l-1400901 -2418600c-240228,-401590 -876499,-447430 -1147887,-11013l-2072042 3511471 584943 0"/>
   <polygon fill="#E53A24" points="1954590,3842747 3199638,1691854 3740571,2645375 3443518,3140460 4565712,3140460 3199638,729171 1386149,3842747 "/>
   <polygon fill="none" stroke="#E53A24" stroke-width="545.287" points="1954590,3842747 3199638,1691854 3740571,2645375 3443518,3140460 4565712,3140460 3199638,729171 1386149,3842747 "/>
   <polygon fill="#E53A24" points="2792990,3846076 2451626,3244251 2795523,2647499 3493426,2647499 3144464,3244251 3493426,3846076 "/>
   <polygon fill="none" stroke="#E53A24" stroke-width="545.287" points="2792990,3846076 2451626,3244251 2795523,2647499 3493426,2647499 3144464,3244251 3493426,3846076 "/>
   <polygon fill="#008DD2" points="603274,4753284 1042539,4008565 457697,4008637 17937,4753284 "/>
   <polygon fill="none" stroke="#008DD2" stroke-width="545.287" points="603274,4753284 1042539,4008565 457697,4008637 17937,4753284 "/>
   <polygon fill="#008DD2" points="1417281,4753456 1856517,4008866 1288162,4008637 848797,4753284 "/>
   <polygon fill="none" stroke="#008DD2" stroke-width="545.287" points="1417281,4753456 1856517,4008866 1288162,4008637 848797,4753284 "/>
  </g>
 </g>
</svg>
