<?xml version="1.0" encoding="UTF-8" standalone="no"?>
<!-- Created with Inkscape (http://www.inkscape.org/) -->
<svg
   xmlns:dc="http://purl.org/dc/elements/1.1/"
   xmlns:cc="http://creativecommons.org/ns#"
   xmlns:rdf="http://www.w3.org/1999/02/22-rdf-syntax-ns#"
   xmlns:svg="http://www.w3.org/2000/svg"
   xmlns="http://www.w3.org/2000/svg"
   xmlns:sodipodi="http://sodipodi.sourceforge.net/DTD/sodipodi-0.dtd"
   xmlns:inkscape="http://www.inkscape.org/namespaces/inkscape"
   id="svg2403"
   sodipodi:version="0.32"
   inkscape:version="0.46"
   width="402.94"
   height="174.52"
   xml:space="preserve"
   sodipodi:docname="Vienna Insurance Group Logo.svg"
   version="1.0"
   inkscape:output_extension="org.inkscape.output.svg.inkscape"><metadata
     id="metadata2408"><rdf:RDF><cc:Work
         rdf:about=""><dc:format>image/svg+xml</dc:format><dc:type
           rdf:resource="http://purl.org/dc/dcmitype/StillImage" /></cc:Work></rdf:RDF></metadata><defs
     id="defs2406"><inkscape:perspective
       sodipodi:type="inkscape:persp3d"
       inkscape:vp_x="0 : 526.18109 : 1"
       inkscape:vp_y="0 : 1000 : 0"
       inkscape:vp_z="744.09448 : 526.18109 : 1"
       inkscape:persp3d-origin="372.04724 : 350.78739 : 1"
       id="perspective2410" /><clipPath
       clipPathUnits="userSpaceOnUse"
       id="clipPath2424"><path
         d="M 0,0 L 595.275,0 L 595.275,841.89 L 0,841.89 L 0,0 z"
         id="path2426" /></clipPath><clipPath
       clipPathUnits="userSpaceOnUse"
       id="clipPath2436"><path
         d="M 0,0 L 595.276,0 L 595.276,841.89 L 0,841.89 L 0,0 z"
         id="path2438" /></clipPath><clipPath
       clipPathUnits="userSpaceOnUse"
       id="clipPath2626"><path
         d="M 225.447,85.039 L 549.898,85.039 L 549.898,343.039 L 225.447,343.039 L 225.447,85.039 z"
         id="path2628" /></clipPath><clipPath
       clipPathUnits="userSpaceOnUse"
       id="clipPath2642"><path
         d="M 90.708,85.039 L 549.921,85.039 L 549.921,343.039 L 90.708,343.039 L 90.708,85.039 z"
         id="path2644" /></clipPath><clipPath
       clipPathUnits="userSpaceOnUse"
       id="clipPath2754"><path
         d="M 225.447,85.039 L 549.898,85.039 L 549.898,343.039 L 225.447,343.039 L 225.447,85.039 z"
         id="path2756" /></clipPath><clipPath
       clipPathUnits="userSpaceOnUse"
       id="clipPath2770"><path
         d="M 90.708,85.039 L 549.921,85.039 L 549.921,343.039 L 90.708,343.039 L 90.708,85.039 z"
         id="path2772" /></clipPath><clipPath
       clipPathUnits="userSpaceOnUse"
       id="clipPath3114"><path
         d="M 225.447,85.039 L 549.898,85.039 L 549.898,343.039 L 225.447,343.039 L 225.447,85.039 z"
         id="path3116" /></clipPath><clipPath
       clipPathUnits="userSpaceOnUse"
       id="clipPath3126"><path
         d="M 90.708,85.039 L 549.921,85.039 L 549.921,343.039 L 90.708,343.039 L 90.708,85.039 z"
         id="path3128" /></clipPath><clipPath
       clipPathUnits="userSpaceOnUse"
       id="clipPath3208"><path
         d="M 0,0 L 595.276,0 L 595.276,841.89 L 0,841.89 L 0,0 z"
         id="path3210" /></clipPath><clipPath
       clipPathUnits="userSpaceOnUse"
       id="clipPath3222"><path
         d="M 102.047,277.039 L 172.913,277.039 L 172.913,306.348 L 102.047,306.348 L 102.047,277.039 z"
         id="path3224" /></clipPath><clipPath
       clipPathUnits="userSpaceOnUse"
       id="clipPath3340"><path
         d="M 0,0 L 595.276,0 L 595.276,841.89 L 0,841.89 L 0,0 z"
         id="path3342" /></clipPath><clipPath
       clipPathUnits="userSpaceOnUse"
       id="clipPath3356"><path
         d="M 17.008,521.605 L 204.095,521.605 L 204.095,656.005 L 17.008,656.005 L 17.008,521.605 z"
         id="path3358" /></clipPath><clipPath
       clipPathUnits="userSpaceOnUse"
       id="clipPath3368"><path
         d="M 0,0 L 595.276,0 L 595.276,841.89 L 0,841.89 L 0,0 z"
         id="path3370" /></clipPath></defs><sodipodi:namedview
     inkscape:window-height="974"
     inkscape:window-width="1280"
     inkscape:pageshadow="2"
     inkscape:pageopacity="0.0"
     guidetolerance="10.0"
     gridtolerance="10.0"
     objecttolerance="10.0"
     borderopacity="1.0"
     bordercolor="#666666"
     pagecolor="#ffffff"
     id="base"
     showgrid="false"
     borderlayer="false"
     inkscape:zoom="1"
     inkscape:cx="226.01004"
     inkscape:cy="246.18127"
     inkscape:window-x="-8"
     inkscape:window-y="-8"
     inkscape:current-layer="g3290" /><g
     id="g2412"
     inkscape:groupmode="layer"
     inkscape:label="unternehmen_ws_gb08"
     transform="matrix(1.25,0,0,-1.25,-127.69075,512.85876)"><g
       id="g2622"><g
         id="g2624"
         clip-path="url(#clipPath2626)"><g
           id="g2630"
           transform="translate(280.5843,73.3898)"><path
             d="M 0,0 C -0.606,0.263 -0.88,-0.416 -1.63,-0.294 C -2.168,-0.065 -2.328,0.765 -1.91,1.179 C -1.59,1.49 -1.126,1.527 -0.761,1.265 C -0.189,1.182 0.529,-0.232 0,0"
             style="fill:#eda9a2;fill-opacity:1;fill-rule:nonzero;stroke:none"
             id="path2632" /></g><g
           id="g2634"
           transform="translate(280.3444,72.2142)"><path
             d="M 0,0 C -0.119,-0.311 -0.033,-0.606 0.227,-0.812 C 0.658,-0.907 1.048,-1.113 1.362,-0.803 C 1.63,-0.535 2.424,-0.761 2.338,-0.314 C 1.956,-0.185 1.731,-0.126 1.329,-0.061 C 0.817,0.016 0.187,0.484 0,0"
             style="fill:#eda9a2;fill-opacity:1;fill-rule:nonzero;stroke:none"
             id="path2636" /></g></g></g><g
       id="g3218"
       transform="matrix(4.5594497,0,0,4.5594497,-363.60704,-986.21316)"><g
         id="g3220"
         clip-path="url(#clipPath3222)"><path
           d="M 102.551,287.41616 L 103.634,287.41616 L 103.634,280.30516 L 102.551,280.30516 L 102.551,287.41616 z M 108.431,280.30516 L 106.269,283.64316 L 106.269,280.30516 L 105.202,280.30516 L 105.202,285.74316 L 106.154,285.74316 L 108.316,282.41216 L 108.316,285.74316 L 109.382,285.74316 L 109.382,280.30516 L 108.431,280.30516 z M 112.157,280.25916 C 111.329,280.25916 110.7,280.43516 110.163,280.97716 L 110.854,281.66416 C 111.199,281.32116 111.666,281.20616 112.173,281.20616 C 112.802,281.20616 113.139,281.44316 113.139,281.87916 C 113.139,282.06916 113.085,282.23016 112.97,282.33716 C 112.863,282.43616 112.74,282.48916 112.487,282.52816 L 111.827,282.61916 C 111.36,282.68816 111.014,282.83316 110.769,283.07016 C 110.509,283.33016 110.378,283.68116 110.378,284.13916 C 110.378,285.10916 111.099,285.78916 112.28,285.78916 C 113.032,285.78916 113.576,285.60516 114.044,285.15516 L 113.369,284.49116 C 113.024,284.81916 112.609,284.86516 112.249,284.86516 C 111.682,284.86516 111.406,284.55116 111.406,284.17716 C 111.406,284.04016 111.452,283.89516 111.567,283.78716 C 111.674,283.68916 111.85,283.60516 112.073,283.57416 L 112.717,283.48216 C 113.215,283.41316 113.53,283.27616 113.76,283.06316 C 114.051,282.78716 114.182,282.39016 114.182,281.90916 C 114.182,280.85516 113.299,280.25916 112.157,280.25916 M 117.111,280.25916 C 115.991,280.25916 115.101,281.01516 115.101,282.16816 L 115.101,285.74316 L 116.168,285.74316 L 116.168,282.20716 C 116.168,281.58016 116.536,281.20616 117.111,281.20616 C 117.686,281.20616 118.062,281.58016 118.062,282.20716 L 118.062,285.74316 L 119.12,285.74316 L 119.12,282.16816 C 119.12,281.01516 118.23,280.25916 117.111,280.25916 M 123.206,280.30516 L 122.141,282.47416 L 121.374,282.47416 L 121.374,280.30516 L 120.308,280.30516 L 120.308,285.74316 L 122.447,285.74316 C 123.56,285.74316 124.219,284.98716 124.219,284.07816 C 124.219,283.31516 123.751,282.84116 123.222,282.64916 L 124.442,280.30516 L 123.206,280.30516 z M 122.378,284.79616 L 121.374,284.79616 L 121.374,283.36016 L 122.378,283.36016 C 122.846,283.36016 123.153,283.65816 123.153,284.07816 C 123.153,284.49816 122.846,284.79616 122.378,284.79616 M 128.428,280.30516 L 128.106,281.26716 L 126.166,281.26716 L 125.836,280.30516 L 124.725,280.30516 L 126.711,285.74316 L 127.547,285.74316 L 129.54,280.30516 L 128.428,280.30516 z M 127.156,284.13916 L 126.465,282.16116 L 127.822,282.16116 L 127.156,284.13916 z M 133.443,280.30516 L 131.281,283.64316 L 131.281,280.30516 L 130.215,280.30516 L 130.215,285.74316 L 131.166,285.74316 L 133.328,282.41216 L 133.328,285.74316 L 134.394,285.74316 L 134.394,280.30516 L 133.443,280.30516 z M 137.491,280.25916 C 136.893,280.25916 136.403,280.47316 136.019,280.85516 C 135.467,281.40516 135.483,282.08516 135.483,283.02416 C 135.483,283.96316 135.467,284.64316 136.019,285.19316 C 136.403,285.57516 136.893,285.78916 137.491,285.78916 C 138.511,285.78916 139.309,285.20816 139.5,284.07016 L 138.42,284.07016 C 138.312,284.50616 138.036,284.84216 137.499,284.84216 C 137.208,284.84216 136.97,284.73516 136.816,284.55916 C 136.609,284.33016 136.548,284.07016 136.548,283.02416 C 136.548,281.97816 136.609,281.71816 136.816,281.48916 C 136.97,281.31316 137.208,281.20616 137.499,281.20616 C 138.036,281.20616 138.312,281.54316 138.42,281.97816 L 139.5,281.97816 C 139.309,280.84016 138.503,280.25916 137.491,280.25916 M 140.421,280.30516 L 140.421,285.74316 L 144.017,285.74316 L 144.017,284.79616 L 141.487,284.79616 L 141.487,283.52016 L 143.641,283.52016 L 143.641,282.57316 L 141.487,282.57316 L 141.487,281.25216 L 144.017,281.25216 L 144.017,280.30516 L 140.421,280.30516 z"
           style="fill:#231f20;fill-opacity:1;fill-rule:nonzero;stroke:none"
           id="path3226" /><path
           d="M 102.551,287.41616 L 103.634,287.41616 L 103.634,280.30516 L 102.551,280.30516 L 102.551,287.41616 z"
           style="fill:#231f20;fill-opacity:1;fill-rule:nonzero;stroke:none"
           id="path3228" /><g
           id="g3230"
           transform="translate(108.4312,280.30516)"><path
             d="M 0,0 L -2.163,3.338 L -2.163,0 L -3.229,0 L -3.229,5.438 L -2.278,5.438 L -0.116,2.107 L -0.116,5.438 L 0.951,5.438 L 0.951,0 L 0,0 z"
             style="fill:#231f20;fill-opacity:1;fill-rule:nonzero;stroke:none"
             id="path3232" /></g><g
           id="g3234"
           transform="translate(112.157,280.25906)"><path
             d="M 0,0 C -0.828,0 -1.456,0.176 -1.993,0.718 L -1.303,1.406 C -0.958,1.062 -0.491,0.948 0.016,0.948 C 0.645,0.948 0.982,1.184 0.982,1.62 C 0.982,1.81 0.928,1.971 0.813,2.078 C 0.706,2.177 0.583,2.23 0.33,2.269 L -0.33,2.36 C -0.797,2.429 -1.143,2.574 -1.388,2.811 C -1.648,3.071 -1.778,3.422 -1.778,3.88 C -1.778,4.85 -1.058,5.53 0.123,5.53 C 0.875,5.53 1.419,5.347 1.887,4.896 L 1.212,4.232 C 0.867,4.56 0.452,4.606 0.092,4.606 C -0.475,4.606 -0.751,4.292 -0.751,3.918 C -0.751,3.781 -0.705,3.636 -0.59,3.529 C -0.483,3.43 -0.307,3.346 -0.084,3.315 L 0.56,3.223 C 1.058,3.155 1.373,3.017 1.603,2.804 C 1.894,2.528 2.025,2.131 2.025,1.65 C 2.025,0.596 1.142,0 0,0"
             style="fill:#231f20;fill-opacity:1;fill-rule:nonzero;stroke:none"
             id="path3236" /></g><g
           id="g3238"
           transform="translate(117.111,280.25906)"><path
             d="M 0,0 C -1.12,0 -2.01,0.756 -2.01,1.91 L -2.01,5.484 L -0.943,5.484 L -0.943,1.948 C -0.943,1.321 -0.575,0.948 0,0.948 C 0.575,0.948 0.95,1.321 0.95,1.948 L 0.95,5.484 L 2.009,5.484 L 2.009,1.91 C 2.009,0.756 1.119,0 0,0"
             style="fill:#231f20;fill-opacity:1;fill-rule:nonzero;stroke:none"
             id="path3240" /></g><g
           id="g3242"
           transform="translate(123.2065,280.30516)"><path
             d="M 0,0 L -1.066,2.169 L -1.832,2.169 L -1.832,0 L -2.898,0 L -2.898,5.438 L -0.759,5.438 C 0.353,5.438 1.013,4.682 1.013,3.773 C 1.013,3.01 0.545,2.536 0.015,2.344 L 1.235,0 L 0,0 z M -0.828,4.491 L -1.832,4.491 L -1.832,3.055 L -0.828,3.055 C -0.36,3.055 -0.053,3.353 -0.053,3.773 C -0.053,4.193 -0.36,4.491 -0.828,4.491"
             style="fill:#231f20;fill-opacity:1;fill-rule:nonzero;stroke:none"
             id="path3244" /></g><g
           id="g3246"
           transform="translate(128.4282,280.30516)"><path
             d="M 0,0 L -0.322,0.962 L -2.262,0.962 L -2.592,0 L -3.704,0 L -1.718,5.438 L -0.882,5.438 L 1.112,0 L 0,0 z M -1.272,3.834 L -1.963,1.856 L -0.606,1.856 L -1.272,3.834 z"
             style="fill:#231f20;fill-opacity:1;fill-rule:nonzero;stroke:none"
             id="path3248" /></g><g
           id="g3250"
           transform="translate(133.4428,280.30516)"><path
             d="M 0,0 L -2.162,3.338 L -2.162,0 L -3.228,0 L -3.228,5.438 L -2.277,5.438 L -0.115,2.107 L -0.115,5.438 L 0.951,5.438 L 0.951,0 L 0,0 z"
             style="fill:#231f20;fill-opacity:1;fill-rule:nonzero;stroke:none"
             id="path3252" /></g><g
           id="g3254"
           transform="translate(137.4914,280.25906)"><path
             d="M 0,0 C -0.598,0 -1.089,0.214 -1.472,0.596 C -2.024,1.146 -2.009,1.826 -2.009,2.765 C -2.009,3.704 -2.024,4.384 -1.472,4.934 C -1.089,5.316 -0.598,5.53 0,5.53 C 1.02,5.53 1.817,4.949 2.009,3.811 L 0.928,3.811 C 0.82,4.247 0.544,4.583 0.008,4.583 C -0.283,4.583 -0.521,4.476 -0.675,4.3 C -0.882,4.071 -0.943,3.811 -0.943,2.765 C -0.943,1.719 -0.882,1.459 -0.675,1.23 C -0.521,1.054 -0.283,0.948 0.008,0.948 C 0.544,0.948 0.82,1.284 0.928,1.719 L 2.009,1.719 C 1.817,0.581 1.012,0 0,0"
             style="fill:#231f20;fill-opacity:1;fill-rule:nonzero;stroke:none"
             id="path3256" /></g><g
           id="g3258"
           transform="translate(140.4209,280.30516)"><path
             d="M 0,0 L 0,5.438 L 3.596,5.438 L 3.596,4.491 L 1.066,4.491 L 1.066,3.215 L 3.22,3.215 L 3.22,2.268 L 1.066,2.268 L 1.066,0.947 L 3.596,0.947 L 3.596,0 L 0,0 z"
             style="fill:#231f20;fill-opacity:1;fill-rule:nonzero;stroke:none"
             id="path3260" /></g><g
           id="g3262"
           transform="translate(151.9198,281.05396)"><path
             d="M 0,0 C -0.542,-0.569 -1.213,-0.809 -1.965,-0.809 C -2.708,-0.809 -3.349,-0.539 -3.841,-0.049 C -4.542,0.65 -4.533,1.439 -4.533,2.807 C -4.533,4.175 -4.542,4.964 -3.841,5.663 C -3.349,6.153 -2.728,6.423 -1.965,6.423 C -0.451,6.423 0.431,5.434 0.631,4.215 L -0.462,4.215 C -0.642,4.994 -1.164,5.454 -1.965,5.454 C -2.387,5.454 -2.768,5.284 -3.019,5.014 C -3.37,4.634 -3.45,4.235 -3.45,2.807 C -3.45,1.379 -3.37,0.969 -3.019,0.59 C -2.768,0.32 -2.387,0.16 -1.965,0.16 C -1.494,0.16 -1.083,0.34 -0.803,0.659 C -0.542,0.96 -0.442,1.319 -0.442,1.778 L -0.442,2.177 L -1.965,2.177 L -1.965,3.096 L 0.641,3.096 L 0.641,2.007 C 0.641,1.089 0.471,0.499 0,0 M 4.838,-0.749 L 3.772,1.42 L 3.005,1.42 L 3.005,-0.749 L 1.939,-0.749 L 1.939,4.689 L 4.079,4.689 C 5.19,4.689 5.85,3.933 5.85,3.024 C 5.85,2.261 5.382,1.787 4.853,1.595 L 6.072,-0.749 L 4.838,-0.749 z M 4.009,3.742 L 3.005,3.742 L 3.005,2.306 L 4.009,2.306 C 4.477,2.306 4.784,2.604 4.784,3.024 C 4.784,3.444 4.477,3.742 4.009,3.742 M 10.259,-0.199 C 9.875,-0.581 9.407,-0.795 8.786,-0.795 C 8.165,-0.795 7.69,-0.581 7.306,-0.199 C 6.755,0.351 6.769,1.031 6.769,1.97 C 6.769,2.91 6.755,3.59 7.306,4.139 C 7.69,4.521 8.165,4.735 8.786,4.735 C 9.407,4.735 9.875,4.521 10.259,4.139 C 10.81,3.59 10.803,2.91 10.803,1.97 C 10.803,1.031 10.81,0.351 10.259,-0.199 M 9.468,3.498 C 9.316,3.674 9.078,3.788 8.786,3.788 C 8.495,3.788 8.25,3.674 8.096,3.498 C 7.889,3.268 7.835,3.016 7.835,1.97 C 7.835,0.924 7.889,0.671 8.096,0.443 C 8.25,0.267 8.495,0.153 8.786,0.153 C 9.078,0.153 9.316,0.267 9.468,0.443 C 9.676,0.671 9.737,0.924 9.737,1.97 C 9.737,3.016 9.676,3.268 9.468,3.498 M 13.816,-0.795 C 12.697,-0.795 11.808,-0.038 11.808,1.115 L 11.808,4.689 L 12.873,4.689 L 12.873,1.153 C 12.873,0.527 13.241,0.153 13.816,0.153 C 14.391,0.153 14.767,0.527 14.767,1.153 L 14.767,4.689 L 15.825,4.689 L 15.825,1.115 C 15.825,-0.038 14.936,-0.795 13.816,-0.795 M 19.131,1.298 L 18.08,1.298 L 18.08,-0.749 L 17.014,-0.749 L 17.014,4.689 L 19.131,4.689 C 20.258,4.689 20.932,3.918 20.932,2.994 C 20.932,2.069 20.258,1.298 19.131,1.298 M 19.076,3.742 L 18.08,3.742 L 18.08,2.253 L 19.076,2.253 C 19.559,2.253 19.867,2.551 19.867,2.994 C 19.867,3.437 19.559,3.742 19.076,3.742"
             style="fill:#231f20;fill-opacity:1;fill-rule:nonzero;stroke:none"
             id="path3264" /></g><g
           id="g3266"
           transform="translate(151.9198,281.05396)"><path
             d="M 0,0 C -0.542,-0.569 -1.213,-0.809 -1.965,-0.809 C -2.708,-0.809 -3.349,-0.539 -3.841,-0.049 C -4.542,0.65 -4.533,1.439 -4.533,2.807 C -4.533,4.175 -4.542,4.964 -3.841,5.663 C -3.349,6.153 -2.728,6.423 -1.965,6.423 C -0.451,6.423 0.431,5.434 0.631,4.215 L -0.462,4.215 C -0.642,4.994 -1.164,5.454 -1.965,5.454 C -2.387,5.454 -2.768,5.284 -3.019,5.014 C -3.37,4.634 -3.45,4.235 -3.45,2.807 C -3.45,1.379 -3.37,0.969 -3.019,0.59 C -2.768,0.32 -2.387,0.16 -1.965,0.16 C -1.494,0.16 -1.083,0.34 -0.803,0.659 C -0.542,0.96 -0.442,1.319 -0.442,1.778 L -0.442,2.177 L -1.965,2.177 L -1.965,3.096 L 0.641,3.096 L 0.641,2.007 C 0.641,1.089 0.471,0.499 0,0"
             style="fill:#231f20;fill-opacity:1;fill-rule:nonzero;stroke:none"
             id="path3268" /></g><g
           id="g3270"
           transform="translate(156.7573,280.30516)"><path
             d="M 0,0 L -1.065,2.169 L -1.832,2.169 L -1.832,0 L -2.899,0 L -2.899,5.438 L -0.759,5.438 C 0.353,5.438 1.012,4.682 1.012,3.773 C 1.012,3.01 0.544,2.536 0.016,2.344 L 1.235,0 L 0,0 z M -0.828,4.491 L -1.832,4.491 L -1.832,3.055 L -0.828,3.055 C -0.36,3.055 -0.053,3.353 -0.053,3.773 C -0.053,4.193 -0.36,4.491 -0.828,4.491"
             style="fill:#231f20;fill-opacity:1;fill-rule:nonzero;stroke:none"
             id="path3272" /></g><g
           id="g3274"
           transform="translate(162.1788,280.85526)"><path
             d="M 0,0 C -0.384,-0.382 -0.852,-0.596 -1.473,-0.596 C -2.094,-0.596 -2.569,-0.382 -2.953,0 C -3.504,0.55 -3.49,1.23 -3.49,2.169 C -3.49,3.108 -3.504,3.788 -2.953,4.338 C -2.569,4.72 -2.094,4.934 -1.473,4.934 C -0.852,4.934 -0.384,4.72 0,4.338 C 0.551,3.788 0.544,3.108 0.544,2.169 C 0.544,1.23 0.551,0.55 0,0 M -0.791,3.696 C -0.943,3.872 -1.181,3.987 -1.473,3.987 C -1.764,3.987 -2.01,3.872 -2.163,3.696 C -2.371,3.467 -2.424,3.215 -2.424,2.169 C -2.424,1.123 -2.371,0.87 -2.163,0.641 C -2.01,0.466 -1.764,0.351 -1.473,0.351 C -1.181,0.351 -0.943,0.466 -0.791,0.641 C -0.583,0.87 -0.522,1.123 -0.522,2.169 C -0.522,3.215 -0.583,3.467 -0.791,3.696"
             style="fill:#231f20;fill-opacity:1;fill-rule:nonzero;stroke:none"
             id="path3276" /></g><g
           id="g3278"
           transform="translate(165.7362,280.25906)"><path
             d="M 0,0 C -1.119,0 -2.009,0.756 -2.009,1.91 L -2.009,5.484 L -0.943,5.484 L -0.943,1.948 C -0.943,1.321 -0.575,0.948 0,0.948 C 0.575,0.948 0.951,1.321 0.951,1.948 L 0.951,5.484 L 2.009,5.484 L 2.009,1.91 C 2.009,0.756 1.12,0 0,0"
             style="fill:#231f20;fill-opacity:1;fill-rule:nonzero;stroke:none"
             id="path3280" /></g><g
           id="g3282"
           transform="translate(171.0504,282.35226)"><path
             d="M 0,0 L -1.051,0 L -1.051,-2.047 L -2.117,-2.047 L -2.117,3.391 L 0,3.391 C 1.127,3.391 1.802,2.619 1.802,1.695 C 1.802,0.771 1.127,0 0,0 M -0.054,2.444 L -1.051,2.444 L -1.051,0.955 L -0.054,0.955 C 0.429,0.955 0.736,1.253 0.736,1.695 C 0.736,2.139 0.429,2.444 -0.054,2.444"
             style="fill:#231f20;fill-opacity:1;fill-rule:nonzero;stroke:none"
             id="path3284" /></g><g
           id="g3286"
           transform="translate(107.8536,289.85256)"><path
             d="M 0,0 L -1.506,0 L -5.701,12.714 L -3.693,12.714 L -0.753,3.464 L 2.186,12.714 L 4.23,12.714 L 0,0 z M 5.273,9.722 L 7.178,9.722 L 7.178,0 L 5.273,0 L 5.273,9.722 z M 9.453,0 L 9.453,9.722 L 15.883,9.722 L 15.883,8.03 L 11.359,8.03 L 11.359,5.748 L 15.212,5.748 L 15.212,4.055 L 11.359,4.055 L 11.359,1.693 L 15.883,1.693 L 15.883,0 L 9.453,0 z M 23.519,0 L 19.652,5.967 L 19.652,0 L 17.747,0 L 17.747,9.722 L 19.448,9.722 L 23.313,3.768 L 23.313,9.722 L 25.218,9.722 L 25.218,0 L 23.519,0 z M 33.266,0 L 29.4,5.967 L 29.4,0 L 27.495,0 L 27.495,9.722 L 29.195,9.722 L 33.061,3.768 L 33.061,9.722 L 34.965,9.722 L 34.965,0 L 33.266,0 z M 42.794,0 L 42.218,1.72 L 38.75,1.72 L 38.16,0 L 36.172,0 L 39.723,9.722 L 41.217,9.722 L 44.781,0 L 42.794,0 z M 40.518,6.854 L 39.285,3.319 L 41.712,3.319 L 40.518,6.854 z"
             style="fill:#231f20;fill-opacity:1;fill-rule:nonzero;stroke:none"
             id="path3288" /></g><g
           id="g3290"
           transform="translate(107.8536,290.5544)"><path
             d="M -1.8108793e-08,-0.70183908 L -1.506,-0.70183908 L -5.701,12.01216 L -3.693,12.01216 L -0.75299996,2.762161 L 2.186,12.01216 L 4.23,12.01216 L -1.8108793e-08,-0.70183908 z"
             style="fill:#231f20;fill-opacity:1;fill-rule:nonzero;stroke:none"
             id="path3292" /></g><path
           d="M 113.126,299.57516 L 115.031,299.57516 L 115.031,289.85316 L 113.126,289.85316 L 113.126,299.57516 z"
           style="fill:#231f20;fill-opacity:1;fill-rule:nonzero;stroke:none"
           id="path3294" /><g
           id="g3296"
           transform="translate(117.3062,289.85256)"><path
             d="M 0,0 L 0,9.722 L 6.43,9.722 L 6.43,8.03 L 1.906,8.03 L 1.906,5.748 L 5.759,5.748 L 5.759,4.055 L 1.906,4.055 L 1.906,1.693 L 6.43,1.693 L 6.43,0 L 0,0 z"
             style="fill:#231f20;fill-opacity:1;fill-rule:nonzero;stroke:none"
             id="path3298" /></g><g
           id="g3300"
           transform="translate(131.3725,289.85256)"><path
             d="M 0,0 L -3.866,5.967 L -3.866,0 L -5.772,0 L -5.772,9.722 L -4.071,9.722 L -0.206,3.768 L -0.206,9.722 L 1.699,9.722 L 1.699,0 L 0,0 z"
             style="fill:#231f20;fill-opacity:1;fill-rule:nonzero;stroke:none"
             id="path3302" /></g><g
           id="g3304"
           transform="translate(141.1199,289.85256)"><path
             d="M 0,0 L -3.867,5.967 L -3.867,0 L -5.772,0 L -5.772,9.722 L -4.071,9.722 L -0.206,3.768 L -0.206,9.722 L 1.699,9.722 L 1.699,0 L 0,0 z"
             style="fill:#231f20;fill-opacity:1;fill-rule:nonzero;stroke:none"
             id="path3306" /></g><g
           id="g3308"
           transform="translate(150.6472,289.85256)"><path
             d="M 0,0 L -0.576,1.72 L -4.044,1.72 L -4.634,0 L -6.622,0 L -3.071,9.722 L -1.576,9.722 L 1.988,0 L 0,0 z M -2.275,6.854 L -3.509,3.319 L -1.082,3.319 L -2.275,6.854 z"
             style="fill:#231f20;fill-opacity:1;fill-rule:nonzero;stroke:none"
             id="path3310" /></g><path
           d="M 102.468,277.53516 L 172.663,277.53516 L 172.663,276.36716 L 102.468,276.36716 L 102.468,277.53516 z"
           style="fill:#ed1c24;fill-opacity:1;fill-rule:nonzero;stroke:none"
           id="path3312" /><g
           id="g3314"
           transform="translate(161.7943,294.99676)"><path
             d="M 0,0 L 0.976,0 L 0.976,-3.008 C 1.299,-1.783 2.153,-0.824 3.479,-0.381 C 5.204,0.195 7.099,0.548 9.03,1.075 C 9.802,1.286 10.506,1.627 11.038,2.077 L 11.038,0.348 C 10.624,-0.635 9.599,-1.367 8.124,-1.75 C 6.139,-2.266 3.173,-3.032 3.173,-3.032 C 2.283,-3.263 1.527,-3.497 0.976,-4.019 L 0.976,-5.168 L 0,-5.168 L 0,-4.019 C -0.403,-3.544 -1.049,-3.203 -1.631,-2.976 L -5.021,-1.651 C -5.887,-1.312 -6.575,-0.703 -6.908,0.112 L -6.908,1.982 C -6.574,1.595 -6.141,1.282 -5.618,1.077 L -2.214,-0.258 C -0.917,-0.767 -0.259,-1.786 0,-3.012 L 0,0 z"
             style="fill:#ed1c24;fill-opacity:1;fill-rule:nonzero;stroke:none"
             id="path3316" /></g><g
           id="g3318"
           transform="translate(162.8388,304.58816)"><path
             d="M 0,0 C 0.004,0.549 0.455,0.993 1.004,0.997 L 4.031,0.997 L 4.031,-2.063 C 4.031,-2.615 3.588,-3.063 3.041,-3.063 L 0,-3.063 L 0,0 z"
             style="fill:#ed1c24;fill-opacity:1;fill-rule:nonzero;stroke:none"
             id="path3320" /></g><g
           id="g3322"
           transform="translate(162.8388,296.30956)"><path
             d="M 0,0 L 0,3.076 C 0,3.615 0.241,4.047 0.797,4.047 L 4.031,4.047 C 4.031,-0.474 0,0 0,0"
             style="fill:#ed1c24;fill-opacity:1;fill-rule:nonzero;stroke:none"
             id="path3324" /></g><g
           id="g3326"
           transform="translate(161.6719,296.30956)"><path
             d="M 0,0 L 0,3.076 C 0,3.615 -0.24,4.047 -0.796,4.047 L -4.031,4.047 C -4.031,-0.474 0,0 0,0"
             style="fill:#ed1c24;fill-opacity:1;fill-rule:nonzero;stroke:none"
             id="path3328" /></g><g
           id="g3330"
           transform="translate(161.6719,304.58816)"><path
             d="M 0,0 C -0.004,0.549 -0.454,0.993 -1.004,0.997 L -4.031,0.997 L -4.031,-2.063 C -4.031,-2.615 -3.588,-3.063 -3.04,-3.063 L 0,-3.063 L 0,0 z"
             style="fill:#ed1c24;fill-opacity:1;fill-rule:nonzero;stroke:none"
             id="path3332" /></g></g></g></g></svg>